<svg width="1920" height="416" viewBox="0 0 1920 416" fill="none" xmlns="http://www.w3.org/2000/svg">
<mask id="mask0_1210_40838" style="mask-type:alpha" maskUnits="userSpaceOnUse" x="0" y="0" width="1920" height="416">
<rect width="1920" height="416" fill="#C4C4C4"/>
</mask>
<g mask="url(#mask0_1210_40838)">
<path fill-rule="evenodd" clip-rule="evenodd" d="M1137.84 385.497H2753.99V80.6135C2753.99 66.0858 2741.73 57.725 2715.43 52.6551C2662.63 42.4636 2610.47 19 2557.77 19C2489.77 19 2421.76 57.725 2353.84 57.725C2285.84 57.725 2217.84 19 2149.84 19C2081.92 19 2013.92 57.725 1945.91 57.725C1877.91 57.725 1809.99 19 1742 19C1673.99 19 1605.99 57.725 1538.07 57.725C1470.07 57.725 1402.07 19 1334.07 19C1281.18 19 1229.28 42.2037 1176.41 52.6551C1143.48 59.1336 1137.84 72.4094 1137.84 80.6135V385.497Z" fill="#62D9FA"/>
<path fill-rule="evenodd" clip-rule="evenodd" d="M1137.84 150.066V385.497H2753.99V150.066C2688.58 152.732 2623.18 188.583 2557.77 188.583C2489.77 188.583 2421.76 149.909 2353.84 149.909C2285.84 149.909 2217.84 188.583 2149.84 188.583C2081.92 188.583 2013.92 149.909 1945.91 149.909C1877.91 149.909 1809.99 188.583 1742 188.583C1673.99 188.583 1605.99 149.909 1538.07 149.909C1470.07 149.909 1402.07 188.583 1334.07 188.583C1268.66 188.583 1203.25 152.732 1137.84 150.066V150.066Z" fill="#98E5FA"/>
<path fill-rule="evenodd" clip-rule="evenodd" d="M1334.07 280.769C1268.66 280.769 1203.25 316.62 1137.84 319.337V390.097C1137.84 406.874 1151.98 413.144 1177.3 413.144H2714.53C2742.18 413.144 2753.99 405.827 2753.99 390.097V319.337C2688.58 316.62 2623.18 280.769 2557.77 280.769C2489.77 280.769 2421.76 319.494 2353.84 319.494C2285.84 319.494 2217.84 280.769 2149.84 280.769C2081.92 280.769 2013.92 319.494 1945.91 319.494C1877.91 319.494 1809.99 280.769 1742 280.769C1673.99 280.769 1605.99 319.494 1538.07 319.494C1470.07 319.494 1402.07 280.769 1334.07 280.769Z" fill="#C8EFFC"/>
<path d="M1735.87 371.559C1734.96 371.646 1734.02 371.514 1733.15 371.132C1732.72 370.945 1732.52 370.447 1732.71 370.019C1732.9 369.591 1733.4 369.395 1733.82 369.584C1735.26 370.213 1737.39 369.887 1738.26 368.398C1739.76 365.846 1736.74 363.62 1735.38 362.781C1733.23 361.466 1732.29 359.139 1732.98 356.852C1733.36 355.594 1734.21 354.832 1734.96 354.159C1735.55 353.629 1736.11 353.128 1736.41 352.425C1737.04 350.924 1736.3 350.012 1734.94 348.53C1733.91 347.408 1732.74 346.136 1732.66 344.344C1732.58 342.615 1733.4 341.465 1734.12 340.451C1734.61 339.76 1735.08 339.107 1735.25 338.304C1735.63 336.599 1735.31 334.958 1734.37 333.802C1734.08 333.44 1734.13 332.908 1734.49 332.613C1734.86 332.319 1735.39 332.375 1735.68 332.738C1736.95 334.295 1737.39 336.456 1736.91 338.666C1736.66 339.807 1736.04 340.671 1735.5 341.432C1734.85 342.338 1734.29 343.121 1734.35 344.267C1734.4 345.444 1735.27 346.387 1736.19 347.385C1737.46 348.776 1739.06 350.507 1737.97 353.083C1737.52 354.135 1736.76 354.817 1736.09 355.419C1735.42 356.019 1734.84 356.537 1734.6 357.34C1734.14 358.869 1734.79 360.439 1736.26 361.34C1740 363.631 1741.29 366.589 1739.72 369.255C1738.94 370.582 1737.46 371.405 1735.87 371.559Z" fill="#312BBF"/>
<path d="M1727.17 373.367C1727.03 373.374 1726.89 373.348 1726.76 373.284C1724.08 371.995 1720.99 367.717 1722.41 364.206C1722.91 362.975 1723.82 362.165 1724.62 361.451C1725.57 360.611 1726.39 359.884 1726.57 358.588C1726.73 357.398 1726.13 356.67 1725.38 355.749C1724.78 355.018 1724.1 354.19 1723.85 353.064C1723.62 352.025 1723.76 350.913 1724.24 350.01C1724.83 348.879 1725.85 348.387 1726.66 347.992C1727.78 347.45 1728.35 347.178 1728.18 345.74C1728.1 345.051 1727.79 344.375 1727.47 343.66C1726.89 342.386 1726.23 340.942 1726.86 339.209C1727.32 337.963 1728.21 337.441 1728.93 337.023C1729.59 336.637 1729.97 336.39 1730.2 335.814C1730.62 334.764 1730.32 333.064 1729.39 331.15C1729.19 330.73 1729.37 330.225 1729.79 330.021C1730.21 329.817 1730.71 329.993 1730.92 330.413C1731.73 332.091 1732.54 334.498 1731.77 336.434C1731.32 337.583 1730.47 338.081 1729.78 338.483C1729.15 338.849 1728.7 339.115 1728.45 339.789C1728.06 340.872 1728.5 341.839 1729.01 342.959C1729.37 343.763 1729.75 344.593 1729.86 345.546C1730.16 348.177 1728.57 348.949 1727.4 349.513C1726.69 349.859 1726.07 350.158 1725.73 350.796C1725.45 351.343 1725.36 352.056 1725.5 352.701C1725.66 353.431 1726.16 354.035 1726.68 354.675C1727.54 355.717 1728.51 356.897 1728.24 358.821C1727.98 360.735 1726.79 361.787 1725.75 362.715C1725.02 363.364 1724.33 363.976 1723.98 364.841C1722.89 367.51 1725.68 370.886 1727.49 371.762C1727.91 371.964 1728.09 372.47 1727.89 372.89C1727.75 373.177 1727.47 373.35 1727.17 373.367Z" fill="#312BBF"/>
<path d="M1717.01 359.795C1716.67 359.827 1716.34 359.656 1716.17 359.338C1715.96 358.923 1716.12 358.413 1716.54 358.201C1717.43 357.746 1717.96 357.267 1718.11 356.773C1718.34 356.043 1717.8 355.053 1717.24 354.004C1716.53 352.675 1715.72 351.169 1716.04 349.5C1716.39 347.777 1717.79 346.936 1719.02 346.194C1720.39 345.375 1721.22 344.813 1721.22 343.626C1721.21 342.839 1720.97 342.044 1720.72 341.202C1720.29 339.753 1719.8 338.112 1720.6 336.37C1721.18 335.091 1722.13 334.66 1722.9 334.314C1723.53 334.027 1723.99 333.82 1724.29 333.194C1724.83 332.084 1724.72 330.147 1723.99 327.879C1723.85 327.435 1724.09 326.958 1724.54 326.815C1724.98 326.67 1725.46 326.916 1725.6 327.36C1726.22 329.283 1726.76 331.985 1725.81 333.934C1725.24 335.108 1724.33 335.521 1723.6 335.853C1722.93 336.153 1722.46 336.37 1722.13 337.073C1721.6 338.237 1721.94 339.387 1722.34 340.718C1722.62 341.637 1722.9 342.586 1722.91 343.615C1722.92 345.827 1721.24 346.834 1719.89 347.643C1718.82 348.286 1717.9 348.841 1717.7 349.828C1717.49 350.902 1718.09 352.02 1718.73 353.204C1719.43 354.513 1720.16 355.868 1719.72 357.276C1719.42 358.233 1718.64 359.027 1717.31 359.705C1717.21 359.756 1717.11 359.785 1717.01 359.795Z" fill="#312BBF"/>
<path d="M1758.86 371.522C1758.68 371.538 1758.51 371.503 1758.35 371.409C1757.41 370.856 1756.72 369.769 1756.54 368.574C1756.27 366.745 1757.12 365.394 1757.87 364.201C1758.62 362.999 1759.27 361.962 1758.85 360.509C1758.35 358.808 1757.33 358.732 1755.43 358.736C1753.6 358.74 1751.11 358.747 1750.36 355.441C1750.03 353.986 1750.48 352.762 1750.87 351.683C1751.27 350.608 1751.61 349.68 1751.26 348.57C1750.9 347.428 1749.96 346.951 1748.88 346.399C1747.63 345.768 1746.09 344.983 1745.83 342.954C1745.61 341.278 1746.29 339.958 1746.88 338.794C1747.36 337.852 1747.81 336.962 1747.81 335.933C1747.81 334.706 1747.42 333.477 1746.72 332.561C1746.44 332.188 1746.52 331.659 1746.89 331.377C1747.26 331.096 1747.79 331.17 1748.07 331.542C1748.98 332.746 1749.5 334.346 1749.5 335.934C1749.5 337.368 1748.91 338.533 1748.39 339.562C1747.83 340.645 1747.36 341.581 1747.5 342.74C1747.64 343.827 1748.37 344.246 1749.64 344.891C1750.83 345.494 1752.3 346.243 1752.87 348.064C1753.39 349.722 1752.9 351.073 1752.46 352.265C1752.1 353.249 1751.79 354.099 1752.01 355.067C1752.44 356.969 1753.42 357.051 1755.42 357.046C1757.18 357.042 1759.6 357.035 1760.47 360.037C1761.1 362.217 1760.14 363.748 1759.3 365.099C1758.62 366.181 1758.03 367.116 1758.21 368.329C1758.31 369.02 1758.7 369.657 1759.2 369.952C1759.61 370.189 1759.74 370.707 1759.5 371.109C1759.36 371.352 1759.12 371.497 1758.86 371.522Z" fill="#312BBF"/>
<path d="M1773.53 353.219C1773.12 353.258 1772.74 353.005 1772.63 352.603C1771.87 349.849 1770.14 349.22 1768.46 348.612C1766.7 347.974 1764.71 347.251 1765.14 344.013C1765.44 341.733 1764.92 340.672 1763.09 339.81C1762.79 339.667 1762.47 339.538 1762.13 339.402C1760.73 338.834 1759.13 338.19 1758.5 336.346C1757.96 334.772 1758.34 333.293 1758.67 331.988C1758.95 330.917 1759.2 329.907 1759 328.891C1758.75 327.7 1758.13 326.626 1757.3 325.943C1756.94 325.648 1756.88 325.115 1757.18 324.754C1757.47 324.392 1758 324.339 1758.37 324.634C1759.5 325.559 1760.33 326.987 1760.65 328.552C1760.94 329.948 1760.62 331.198 1760.31 332.407C1759.99 333.638 1759.72 334.701 1760.1 335.797C1760.48 336.912 1761.54 337.339 1762.77 337.834C1763.11 337.973 1763.47 338.117 1763.82 338.281C1766.31 339.458 1767.21 341.239 1766.81 344.234C1766.56 346.126 1767.34 346.407 1769.04 347.023C1770.82 347.671 1773.27 348.557 1774.26 352.152C1774.38 352.602 1774.12 353.068 1773.67 353.192C1773.62 353.206 1773.57 353.215 1773.53 353.219Z" fill="#312BBF"/>
<path d="M1772.63 363.099C1772.63 363.1 1772.63 363.1 1772.63 363.1C1771.66 363.276 1770.69 363.032 1769.91 362.411C1768.25 361.089 1768.19 358.996 1768.14 357.15C1768.12 356.096 1768.09 355.099 1767.8 354.3C1767.1 352.368 1765.65 351.379 1763.93 351.653C1763.62 351.704 1763.25 351.801 1762.85 351.907C1761.16 352.355 1758.6 353.033 1757.28 350.705C1756.44 349.231 1757.01 347.869 1757.46 346.776C1757.96 345.574 1758.21 344.85 1757.61 343.957C1757.21 343.362 1756.67 343.261 1755.75 343.133C1754.67 342.983 1753.18 342.776 1752.41 340.904C1751.74 339.267 1752.19 337.797 1752.6 336.5C1752.84 335.718 1753.07 334.98 1753.06 334.241C1753.04 332.399 1752.46 330.654 1751.42 329.329C1751.13 328.961 1751.2 328.429 1751.57 328.142C1751.94 327.854 1752.47 327.92 1752.75 328.288C1754.02 329.904 1754.72 332.012 1754.75 334.223C1754.76 335.226 1754.48 336.127 1754.21 336.999C1753.85 338.173 1753.53 339.187 1753.98 340.264C1754.36 341.194 1754.9 341.308 1755.99 341.459C1756.96 341.594 1758.17 341.762 1759.02 343.013C1760.15 344.704 1759.53 346.213 1759.02 347.426C1758.57 348.505 1758.34 349.15 1758.75 349.869C1759.38 350.982 1760.61 350.753 1762.42 350.273C1762.86 350.156 1763.28 350.042 1763.66 349.985C1766.17 349.585 1768.42 351.052 1769.39 353.724C1769.77 354.781 1769.8 355.964 1769.83 357.108C1769.88 358.798 1769.92 360.257 1770.96 361.088C1771.36 361.402 1771.84 361.526 1772.33 361.438C1772.33 361.438 1772.33 361.437 1772.33 361.437C1772.86 361.34 1773.33 361.003 1773.63 360.513C1773.87 360.112 1774.38 359.982 1774.79 360.221C1775.19 360.461 1775.32 360.981 1775.08 361.381C1774.53 362.287 1773.64 362.914 1772.63 363.099Z" fill="#312BBF"/>
<path d="M1750.45 372.72C1750.43 372.721 1750.41 372.723 1750.4 372.724C1749.26 372.819 1748.19 372.398 1747.37 371.541C1745.42 369.494 1747.01 367.43 1748.06 366.063C1748.44 365.565 1748.8 365.094 1749 364.68C1749.33 363.991 1749.38 363.361 1749.16 362.809C1748.91 362.194 1748.3 361.678 1747.45 361.356C1747.11 361.225 1746.75 361.116 1746.37 361.001C1745.41 360.712 1744.42 360.415 1743.57 359.735C1742.59 358.95 1741.97 357.733 1741.91 356.481C1741.85 355.229 1742.34 354.231 1742.78 353.35C1743.39 352.108 1743.76 351.359 1742.78 350.153C1742.41 349.692 1741.9 349.269 1741.36 348.82C1740.05 347.731 1738.57 346.495 1738.7 344.316C1738.79 342.719 1739.74 341.733 1740.57 340.864C1741.14 340.269 1741.68 339.707 1741.93 338.991C1742.62 337.014 1742.39 334.332 1740.32 332.797C1739.94 332.519 1739.86 331.989 1740.14 331.614C1740.42 331.239 1740.95 331.16 1741.32 331.438C1743.71 333.21 1744.6 336.468 1743.53 339.547C1743.16 340.612 1742.43 341.367 1741.79 342.034C1741.04 342.82 1740.44 343.441 1740.38 344.416C1740.31 345.742 1741.3 346.566 1742.44 347.52C1743.02 348.001 1743.62 348.498 1744.1 349.089C1745.76 351.135 1744.94 352.778 1744.29 354.098C1743.92 354.862 1743.56 355.584 1743.6 356.398C1743.64 357.174 1744.02 357.928 1744.63 358.415C1745.22 358.89 1746.02 359.129 1746.85 359.382C1747.25 359.5 1747.65 359.623 1748.05 359.775C1749.35 360.266 1750.3 361.119 1750.72 362.176C1751.12 363.17 1751.06 364.286 1750.53 365.403C1750.25 365.98 1749.82 366.546 1749.4 367.093C1748.18 368.68 1747.74 369.47 1748.6 370.374C1749.07 370.868 1749.63 371.092 1750.25 371.039C1751.06 370.981 1751.87 370.457 1752.38 369.695C1752.65 369.308 1753.17 369.207 1753.56 369.468C1753.95 369.729 1754.05 370.255 1753.79 370.641C1752.99 371.821 1751.74 372.595 1750.45 372.72Z" fill="#312BBF"/>
<path d="M1735.02 332.425C1735.27 332.425 1735.51 332.532 1735.68 332.738C1736.94 334.295 1737.39 336.456 1736.91 338.666C1736.66 339.808 1736.04 340.671 1735.5 341.432C1734.85 342.339 1734.29 343.121 1734.34 344.267C1734.4 345.444 1735.27 346.387 1736.18 347.385C1737.46 348.776 1739.06 350.507 1737.97 353.083C1737.52 354.136 1736.76 354.817 1736.09 355.419C1735.42 356.019 1734.84 356.537 1734.6 357.34C1734.14 358.869 1734.79 360.439 1736.26 361.34C1739.99 363.631 1741.29 366.59 1739.72 369.255C1738.94 370.582 1737.46 371.406 1735.87 371.559C1735.69 371.576 1735.51 371.585 1735.33 371.585C1734.59 371.585 1733.85 371.439 1733.15 371.132C1732.72 370.945 1732.52 370.447 1732.71 370.019C1732.85 369.701 1733.16 369.512 1733.48 369.512C1733.6 369.512 1733.71 369.535 1733.82 369.584C1734.28 369.785 1734.81 369.888 1735.34 369.888C1736.49 369.888 1737.67 369.413 1738.26 368.398C1739.76 365.847 1736.74 363.62 1735.37 362.781C1733.23 361.466 1732.29 359.139 1732.98 356.852C1733.36 355.594 1734.21 354.832 1734.96 354.16C1735.55 353.629 1736.11 353.128 1736.41 352.425C1737.04 350.924 1736.3 350.013 1734.94 348.53C1733.91 347.408 1732.74 346.136 1732.66 344.344C1732.58 342.615 1733.4 341.465 1734.12 340.451C1734.61 339.76 1735.08 339.108 1735.26 338.304C1735.63 336.599 1735.31 334.958 1734.37 333.803C1734.08 333.441 1734.13 332.908 1734.49 332.614C1734.65 332.487 1734.84 332.425 1735.02 332.425ZM1735.02 331.456C1734.61 331.456 1734.2 331.6 1733.88 331.863C1733.51 332.166 1733.27 332.6 1733.22 333.082C1733.17 333.564 1733.31 334.037 1733.62 334.413C1734.37 335.338 1734.62 336.681 1734.31 338.096C1734.17 338.706 1733.78 339.254 1733.33 339.888C1732.56 340.976 1731.59 342.326 1731.69 344.389C1731.79 346.533 1733.14 348.004 1734.23 349.186C1735.68 350.77 1735.88 351.198 1735.52 352.048C1735.3 352.551 1734.85 352.962 1734.31 353.438C1733.51 354.158 1732.51 355.054 1732.05 356.573C1731.23 359.294 1732.34 362.056 1734.87 363.608C1738.24 365.677 1737.78 367.304 1737.43 367.907C1736.99 368.654 1736.06 368.92 1735.34 368.92C1734.94 368.92 1734.55 368.842 1734.21 368.697C1733.98 368.596 1733.74 368.544 1733.48 368.544C1732.76 368.544 1732.11 368.971 1731.82 369.631C1731.63 370.075 1731.62 370.568 1731.8 371.019C1731.97 371.471 1732.31 371.826 1732.76 372.021C1733.57 372.375 1734.43 372.555 1735.33 372.555C1735.54 372.555 1735.76 372.544 1735.97 372.524C1737.93 372.335 1739.64 371.297 1740.56 369.747C1742.4 366.616 1740.95 363.078 1736.77 360.515C1735.67 359.84 1735.19 358.731 1735.52 357.62C1735.69 357.078 1736.13 356.686 1736.73 356.142C1737.45 355.504 1738.33 354.713 1738.86 353.462C1740.19 350.311 1738.21 348.157 1736.9 346.731C1736.07 345.828 1735.35 345.048 1735.31 344.224C1735.28 343.45 1735.64 342.9 1736.29 341.996C1736.85 341.201 1737.56 340.211 1737.85 338.875C1738.4 336.375 1737.88 333.916 1736.43 332.128C1736.09 331.7 1735.57 331.456 1735.02 331.456Z" fill="#0C1A40"/>
<path d="M1730.16 329.936C1730.47 329.936 1730.77 330.112 1730.92 330.413C1731.73 332.091 1732.54 334.498 1731.77 336.434C1731.32 337.583 1730.47 338.081 1729.78 338.483C1729.15 338.85 1728.7 339.115 1728.45 339.789C1728.06 340.872 1728.5 341.839 1729.01 342.959C1729.37 343.763 1729.75 344.593 1729.86 345.546C1730.16 348.177 1728.57 348.949 1727.4 349.513C1726.69 349.859 1726.07 350.158 1725.73 350.796C1725.44 351.343 1725.36 352.056 1725.5 352.702C1725.66 353.431 1726.16 354.036 1726.68 354.675C1727.54 355.717 1728.51 356.897 1728.24 358.821C1727.97 360.735 1726.79 361.787 1725.75 362.715C1725.01 363.364 1724.32 363.977 1723.97 364.841C1722.89 367.51 1725.68 370.886 1727.49 371.762C1727.91 371.964 1728.09 372.47 1727.89 372.89C1727.75 373.177 1727.47 373.35 1727.17 373.367C1727.16 373.368 1727.14 373.368 1727.12 373.368C1727 373.368 1726.88 373.341 1726.76 373.284C1724.08 371.996 1720.98 367.717 1722.41 364.206C1722.91 362.975 1723.82 362.166 1724.62 361.451C1725.57 360.611 1726.39 359.885 1726.57 358.588C1726.73 357.398 1726.13 356.67 1725.38 355.749C1724.78 355.019 1724.1 354.191 1723.85 353.065C1723.62 352.026 1723.76 350.913 1724.23 350.011C1724.83 348.879 1725.85 348.387 1726.66 347.992C1727.78 347.45 1728.35 347.178 1728.18 345.74C1728.1 345.052 1727.79 344.376 1727.47 343.661C1726.89 342.386 1726.23 340.942 1726.86 339.209C1727.32 337.963 1728.21 337.442 1728.93 337.023C1729.59 336.637 1729.97 336.391 1730.2 335.815C1730.61 334.765 1730.32 333.065 1729.39 331.151C1729.19 330.731 1729.37 330.225 1729.79 330.022C1729.91 329.963 1730.03 329.936 1730.16 329.936ZM1730.16 328.967C1729.88 328.967 1729.61 329.028 1729.36 329.149C1728.93 329.36 1728.6 329.729 1728.44 330.187C1728.28 330.645 1728.31 331.137 1728.52 331.573C1729.46 333.511 1729.54 334.851 1729.3 335.459C1729.2 335.707 1729.07 335.815 1728.44 336.186C1727.68 336.63 1726.53 337.301 1725.95 338.876C1725.18 340.983 1725.96 342.69 1726.59 344.062C1726.88 344.706 1727.16 345.314 1727.22 345.852C1727.3 346.606 1727.31 346.606 1726.24 347.12C1725.35 347.553 1724.12 348.146 1723.38 349.56C1722.8 350.661 1722.63 352.014 1722.9 353.273C1723.2 354.628 1723.99 355.591 1724.63 356.365C1725.38 357.281 1725.71 357.717 1725.61 358.456C1725.48 359.355 1724.94 359.879 1723.98 360.727C1723.14 361.474 1722.09 362.403 1721.51 363.842C1719.86 367.923 1723.27 372.678 1726.34 374.158C1726.59 374.277 1726.85 374.338 1727.12 374.338C1727.16 374.338 1727.19 374.337 1727.23 374.336C1727.89 374.298 1728.47 373.906 1728.76 373.312C1728.97 372.876 1729 372.383 1728.84 371.925C1728.68 371.468 1728.35 371.1 1727.91 370.89C1726.38 370.152 1724.05 367.245 1724.87 365.206C1725.14 364.552 1725.72 364.037 1726.39 363.442C1727.5 362.452 1728.89 361.223 1729.2 358.955C1729.53 356.611 1728.32 355.138 1727.43 354.061C1726.96 353.488 1726.56 352.996 1726.45 352.495C1726.35 352.072 1726.41 351.594 1726.59 351.248C1726.77 350.909 1727.15 350.71 1727.82 350.387C1729.01 349.815 1731.21 348.75 1730.82 345.436C1730.7 344.333 1730.27 343.392 1729.89 342.562C1729.39 341.457 1729.11 340.801 1729.36 340.123C1729.48 339.793 1729.68 339.668 1730.27 339.321C1731 338.895 1732.1 338.251 1732.68 336.791C1733.57 334.527 1732.69 331.844 1731.79 329.992C1731.49 329.369 1730.85 328.967 1730.16 328.967Z" fill="#0C1A40"/>
<path d="M1724.8 326.774C1725.16 326.774 1725.49 327.003 1725.6 327.36C1726.22 329.284 1726.76 331.985 1725.81 333.935C1725.24 335.109 1724.33 335.521 1723.59 335.854C1722.93 336.153 1722.46 336.37 1722.13 337.073C1721.6 338.237 1721.94 339.387 1722.34 340.718C1722.62 341.637 1722.9 342.587 1722.91 343.615C1722.92 345.827 1721.24 346.835 1719.89 347.643C1718.82 348.286 1717.9 348.841 1717.7 349.828C1717.49 350.902 1718.09 352.02 1718.73 353.204C1719.43 354.514 1720.16 355.868 1719.72 357.276C1719.42 358.233 1718.64 359.027 1717.31 359.705C1717.21 359.755 1717.11 359.785 1717.01 359.794C1716.98 359.797 1716.95 359.798 1716.93 359.798C1716.62 359.798 1716.32 359.63 1716.17 359.338C1715.96 358.922 1716.12 358.413 1716.54 358.2C1717.43 357.746 1717.96 357.266 1718.11 356.773C1718.34 356.043 1717.8 355.053 1717.24 354.004C1716.52 352.675 1715.71 351.168 1716.04 349.5C1716.39 347.777 1717.79 346.936 1719.02 346.193C1720.39 345.375 1721.22 344.813 1721.21 343.626C1721.21 342.839 1720.97 342.043 1720.72 341.202C1720.29 339.753 1719.8 338.111 1720.6 336.369C1721.18 335.091 1722.13 334.66 1722.9 334.313C1723.53 334.026 1723.99 333.819 1724.29 333.193C1724.83 332.083 1724.72 330.146 1723.99 327.879C1723.85 327.434 1724.09 326.958 1724.54 326.815C1724.62 326.787 1724.71 326.774 1724.8 326.774ZM1724.8 325.805C1724.61 325.805 1724.42 325.835 1724.24 325.894C1723.78 326.042 1723.4 326.361 1723.18 326.792C1722.96 327.224 1722.92 327.716 1723.07 328.177C1723.83 330.533 1723.75 332.094 1723.42 332.769C1723.28 333.055 1723.13 333.143 1722.5 333.431C1721.68 333.801 1720.45 334.359 1719.71 335.966C1718.77 338.039 1719.33 339.946 1719.79 341.478C1720.02 342.252 1720.24 342.982 1720.25 343.633C1720.25 344.204 1719.94 344.512 1718.53 345.363C1717.19 346.167 1715.52 347.168 1715.09 349.312C1714.7 351.322 1715.63 353.064 1716.39 354.463C1716.75 355.132 1717.29 356.144 1717.18 356.485C1717.17 356.522 1717.05 356.853 1716.1 357.338C1715.67 357.559 1715.35 357.935 1715.2 358.396C1715.05 358.857 1715.09 359.349 1715.31 359.78C1715.62 360.389 1716.24 360.768 1716.93 360.768C1716.98 360.768 1717.04 360.765 1717.1 360.76C1717.33 360.738 1717.55 360.673 1717.75 360.569C1719.32 359.765 1720.27 358.783 1720.65 357.565C1721.21 355.768 1720.34 354.162 1719.58 352.745C1719.03 351.717 1718.51 350.749 1718.65 350.016C1718.76 349.478 1719.38 349.08 1720.39 348.474C1721.79 347.638 1723.89 346.375 1723.87 343.609C1723.87 342.442 1723.55 341.379 1723.27 340.441C1722.86 339.08 1722.65 338.271 1723.01 337.476C1723.18 337.119 1723.37 337.021 1723.99 336.737C1724.78 336.383 1725.96 335.848 1726.68 334.36C1727.77 332.121 1727.2 329.156 1726.52 327.063C1726.28 326.31 1725.59 325.805 1724.8 325.805Z" fill="#0C1A40"/>
<path d="M1747.4 331.206C1747.65 331.206 1747.91 331.322 1748.07 331.542C1748.98 332.746 1749.5 334.347 1749.5 335.934C1749.5 337.369 1748.91 338.534 1748.39 339.562C1747.83 340.646 1747.36 341.581 1747.51 342.74C1747.64 343.828 1748.37 344.246 1749.64 344.891C1750.83 345.494 1752.3 346.243 1752.87 348.065C1753.39 349.723 1752.9 351.073 1752.46 352.265C1752.1 353.249 1751.79 354.099 1752.01 355.068C1752.43 356.924 1753.37 357.046 1755.28 357.046C1755.33 357.046 1755.38 357.046 1755.42 357.046C1755.49 357.046 1755.56 357.046 1755.62 357.046C1757.36 357.046 1759.63 357.148 1760.47 360.038C1761.1 362.218 1760.15 363.749 1759.3 365.099C1758.62 366.182 1758.04 367.116 1758.21 368.329C1758.31 369.02 1758.7 369.657 1759.2 369.952C1759.61 370.189 1759.74 370.707 1759.5 371.11C1759.36 371.352 1759.12 371.497 1758.86 371.522C1758.83 371.525 1758.8 371.526 1758.78 371.526C1758.63 371.526 1758.48 371.488 1758.35 371.409C1757.41 370.856 1756.72 369.77 1756.54 368.574C1756.27 366.746 1757.12 365.394 1757.87 364.201C1758.62 363 1759.27 361.962 1758.85 360.509C1758.36 358.847 1757.38 358.736 1755.55 358.736C1755.51 358.736 1755.47 358.736 1755.43 358.737C1755.36 358.737 1755.29 358.737 1755.22 358.737C1753.42 358.737 1751.08 358.624 1750.36 355.442C1750.03 353.986 1750.48 352.762 1750.87 351.683C1751.27 350.608 1751.61 349.68 1751.26 348.57C1750.9 347.429 1749.96 346.952 1748.88 346.399C1747.63 345.768 1746.09 344.983 1745.83 342.955C1745.62 341.279 1746.29 339.959 1746.88 338.795C1747.36 337.853 1747.81 336.963 1747.81 335.934C1747.81 334.707 1747.42 333.478 1746.72 332.562C1746.44 332.189 1746.52 331.659 1746.89 331.378C1747.04 331.262 1747.22 331.206 1747.4 331.206ZM1747.4 330.238C1747 330.238 1746.62 330.365 1746.3 330.605C1745.51 331.207 1745.35 332.347 1745.95 333.145C1746.52 333.897 1746.84 334.913 1746.84 335.933C1746.84 336.73 1746.46 337.482 1746.02 338.354C1745.39 339.58 1744.62 341.104 1744.87 343.076C1745.19 345.614 1747.14 346.606 1748.44 347.263C1749.53 347.818 1750.11 348.141 1750.34 348.859C1750.57 349.618 1750.36 350.267 1749.96 351.349C1749.54 352.496 1749.02 353.922 1749.41 355.655C1750.33 359.706 1753.63 359.706 1755.22 359.706L1755.43 359.705H1755.55C1757.45 359.705 1757.65 359.868 1757.92 360.779C1758.2 361.769 1757.82 362.456 1757.05 363.686C1756.25 364.955 1755.26 366.533 1755.58 368.714C1755.8 370.193 1756.67 371.546 1757.86 372.244C1758.13 372.408 1758.45 372.495 1758.77 372.495C1758.83 372.495 1758.89 372.492 1758.95 372.487C1759.53 372.431 1760.05 372.1 1760.34 371.602C1760.85 370.739 1760.56 369.625 1759.7 369.117C1759.48 368.993 1759.24 368.634 1759.17 368.189C1759.05 367.369 1759.43 366.709 1760.12 365.614C1760.98 364.243 1762.16 362.365 1761.4 359.767C1760.33 356.077 1757.15 356.077 1755.62 356.077L1755.43 356.077L1755.28 356.077C1753.42 356.077 1753.21 355.963 1752.95 354.854C1752.8 354.165 1753.04 353.508 1753.37 352.6C1753.84 351.328 1754.42 349.747 1753.8 347.775C1753.11 345.565 1751.36 344.677 1750.08 344.028C1748.79 343.374 1748.53 343.15 1748.47 342.619C1748.36 341.757 1748.73 341.023 1749.25 340.006C1749.8 338.934 1750.47 337.603 1750.47 335.935C1750.47 334.142 1749.88 332.328 1748.85 330.959C1748.5 330.507 1747.96 330.238 1747.4 330.238Z" fill="#0C1A40"/>
<path d="M1757.83 324.443C1758.02 324.443 1758.21 324.506 1758.37 324.634C1759.5 325.559 1760.33 326.987 1760.65 328.552C1760.94 329.948 1760.62 331.198 1760.31 332.407C1759.99 333.638 1759.72 334.701 1760.1 335.798C1760.48 336.912 1761.54 337.339 1762.77 337.834C1763.11 337.974 1763.47 338.118 1763.81 338.281C1766.31 339.459 1767.21 341.239 1766.81 344.234C1766.56 346.126 1767.34 346.407 1769.04 347.024C1770.82 347.671 1773.27 348.558 1774.26 352.153C1774.38 352.603 1774.12 353.069 1773.67 353.193C1773.62 353.206 1773.57 353.215 1773.53 353.22C1773.5 353.222 1773.47 353.224 1773.44 353.224C1773.07 353.224 1772.73 352.978 1772.63 352.603C1771.87 349.849 1770.14 349.221 1768.46 348.613C1766.7 347.975 1764.71 347.252 1765.14 344.014C1765.44 341.733 1764.92 340.673 1763.09 339.81C1762.79 339.667 1762.47 339.538 1762.13 339.402C1760.73 338.834 1759.13 338.191 1758.5 336.346C1757.96 334.772 1758.34 333.293 1758.67 331.989C1758.94 330.918 1759.2 329.907 1758.99 328.892C1758.75 327.701 1758.13 326.627 1757.3 325.944C1756.93 325.648 1756.88 325.116 1757.18 324.755C1757.34 324.549 1757.59 324.443 1757.83 324.443ZM1757.83 323.474C1757.28 323.474 1756.77 323.717 1756.43 324.141C1755.79 324.915 1755.91 326.06 1756.68 326.693C1757.35 327.238 1757.85 328.11 1758.05 329.086C1758.21 329.882 1757.99 330.746 1757.73 331.746C1757.38 333.116 1756.95 334.814 1757.58 336.66C1758.36 338.924 1760.33 339.719 1761.77 340.3C1762.1 340.432 1762.4 340.555 1762.68 340.686C1764.01 341.314 1764.44 341.892 1764.18 343.886C1763.65 347.896 1766.35 348.875 1768.13 349.523C1769.77 350.118 1771.07 350.588 1771.7 352.861C1771.91 353.644 1772.63 354.191 1773.44 354.191C1773.5 354.191 1773.56 354.189 1773.62 354.183C1773.72 354.173 1773.83 354.154 1773.93 354.126C1774.4 353.997 1774.78 353.693 1775.02 353.272C1775.26 352.85 1775.32 352.36 1775.19 351.893C1774.07 347.817 1771.24 346.791 1769.37 346.112C1767.69 345.503 1767.63 345.48 1767.77 344.36C1768.22 340.966 1767.09 338.756 1764.23 337.404C1763.85 337.227 1763.47 337.072 1763.13 336.935C1761.93 336.451 1761.24 336.145 1761.01 335.482C1760.73 334.66 1760.96 333.771 1761.25 332.646C1761.57 331.392 1761.93 329.971 1761.6 328.356C1761.23 326.577 1760.28 324.946 1758.98 323.883C1758.66 323.62 1758.25 323.474 1757.83 323.474Z" fill="#0C1A40"/>
<path d="M1752.09 327.963C1752.34 327.963 1752.59 328.074 1752.75 328.288C1754.02 329.904 1754.72 332.012 1754.75 334.223C1754.76 335.226 1754.48 336.127 1754.21 336.998C1753.85 338.173 1753.53 339.187 1753.98 340.263C1754.36 341.194 1754.9 341.308 1755.99 341.459C1756.96 341.594 1758.17 341.762 1759.02 343.013C1760.15 344.704 1759.53 346.213 1759.02 347.426C1758.57 348.505 1758.34 349.15 1758.75 349.869C1759.08 350.457 1759.58 350.67 1760.25 350.67C1760.84 350.67 1761.56 350.499 1762.42 350.273C1762.86 350.156 1763.28 350.042 1763.66 349.984C1763.93 349.941 1764.21 349.919 1764.47 349.919C1766.65 349.919 1768.53 351.344 1769.39 353.723C1769.77 354.781 1769.8 355.963 1769.83 357.107C1769.88 358.797 1769.92 360.257 1770.96 361.088C1771.27 361.335 1771.64 361.465 1772.02 361.465C1772.12 361.465 1772.22 361.456 1772.33 361.437C1772.33 361.437 1772.33 361.437 1772.33 361.437C1772.86 361.339 1773.33 361.002 1773.63 360.512C1773.78 360.247 1774.06 360.101 1774.35 360.101C1774.5 360.101 1774.65 360.139 1774.79 360.22C1775.19 360.461 1775.32 360.98 1775.08 361.38C1774.53 362.287 1773.64 362.914 1772.63 363.1C1772.63 363.1 1772.63 363.1 1772.63 363.1C1772.42 363.138 1772.22 363.156 1772.01 363.156C1771.26 363.156 1770.53 362.9 1769.91 362.411C1768.25 361.089 1768.19 358.997 1768.14 357.15C1768.12 356.096 1768.09 355.099 1767.8 354.3C1767.18 352.581 1765.96 351.608 1764.49 351.608C1764.3 351.608 1764.12 351.623 1763.93 351.653C1763.62 351.704 1763.25 351.801 1762.85 351.907C1762.09 352.109 1761.15 352.357 1760.23 352.357C1759.11 352.357 1758.01 351.986 1757.28 350.705C1756.44 349.231 1757.01 347.869 1757.46 346.776C1757.96 345.574 1758.22 344.85 1757.61 343.957C1757.21 343.362 1756.67 343.261 1755.75 343.133C1754.67 342.983 1753.18 342.776 1752.41 340.904C1751.74 339.267 1752.2 337.797 1752.6 336.5C1752.84 335.718 1753.07 334.98 1753.06 334.241C1753.04 332.399 1752.46 330.654 1751.42 329.329C1751.14 328.961 1751.2 328.429 1751.57 328.142C1751.72 328.021 1751.91 327.963 1752.09 327.963ZM1752.09 326.994C1751.69 326.994 1751.29 327.13 1750.97 327.377C1750.18 327.994 1750.04 329.136 1750.66 329.924C1751.56 331.084 1752.07 332.62 1752.09 334.251C1752.09 334.839 1751.9 335.476 1751.67 336.213C1751.24 337.594 1750.71 339.312 1751.51 341.271C1752.49 343.66 1754.45 343.931 1755.62 344.093C1756.53 344.219 1756.67 344.286 1756.81 344.498C1757.1 344.932 1757.07 345.199 1756.57 346.403C1756.09 347.555 1755.36 349.296 1756.44 351.184C1757.24 352.605 1758.52 353.325 1760.23 353.325C1761.28 353.325 1762.29 353.058 1763.1 352.844C1763.47 352.745 1763.82 352.652 1764.09 352.608C1764.22 352.588 1764.35 352.577 1764.48 352.577C1765.93 352.577 1766.61 353.864 1766.89 354.631C1767.13 355.283 1767.15 356.202 1767.17 357.175C1767.23 359.131 1767.29 361.566 1769.31 363.17C1770.09 363.794 1771.03 364.125 1772.01 364.125C1772.27 364.125 1772.54 364.101 1772.8 364.053C1774.09 363.816 1775.22 363.024 1775.91 361.877C1776.42 361.019 1776.14 359.903 1775.28 359.389C1775 359.22 1774.68 359.131 1774.35 359.131C1773.72 359.131 1773.12 359.469 1772.79 360.014C1772.64 360.265 1772.41 360.436 1772.15 360.483L1772.15 360.484C1772.1 360.491 1772.06 360.495 1772.02 360.495C1771.86 360.495 1771.7 360.439 1771.56 360.328C1770.91 359.805 1770.85 358.754 1770.8 357.081C1770.77 355.919 1770.74 354.6 1770.3 353.391C1769.3 350.651 1767.07 348.949 1764.47 348.949C1764.15 348.949 1763.83 348.975 1763.51 349.026C1763.1 349.087 1762.68 349.199 1762.24 349.316L1762.17 349.335C1761.47 349.52 1760.75 349.7 1760.25 349.7C1759.8 349.7 1759.69 349.57 1759.59 349.388C1759.43 349.105 1759.48 348.837 1759.92 347.796C1760.45 346.521 1761.25 344.594 1759.82 342.47C1758.73 340.86 1757.16 340.642 1756.12 340.498C1755.06 340.351 1755.03 340.29 1754.87 339.895C1754.58 339.176 1754.77 338.47 1755.14 337.285C1755.41 336.385 1755.73 335.367 1755.72 334.211C1755.69 331.789 1754.91 329.473 1753.52 327.69C1753.17 327.248 1752.65 326.994 1752.09 326.994Z" fill="#0C1A40"/>
<path d="M1740.82 331.272C1740.99 331.272 1741.17 331.326 1741.32 331.439C1743.71 333.21 1744.6 336.468 1743.53 339.547C1743.16 340.612 1742.43 341.368 1741.79 342.035C1741.04 342.82 1740.44 343.441 1740.38 344.417C1740.31 345.743 1741.3 346.566 1742.44 347.521C1743.02 348.001 1743.62 348.499 1744.1 349.089C1745.75 351.136 1744.94 352.778 1744.29 354.098C1743.92 354.862 1743.56 355.584 1743.6 356.398C1743.64 357.175 1744.02 357.929 1744.63 358.415C1745.22 358.891 1746.01 359.129 1746.85 359.382C1747.25 359.501 1747.65 359.623 1748.05 359.775C1749.35 360.267 1750.3 361.119 1750.72 362.177C1751.12 363.171 1751.06 364.286 1750.53 365.403C1750.25 365.981 1749.82 366.546 1749.4 367.093C1748.18 368.68 1747.74 369.471 1748.6 370.374C1749.02 370.821 1749.52 371.047 1750.08 371.047C1750.14 371.047 1750.19 371.044 1750.25 371.039C1751.06 370.982 1751.87 370.458 1752.38 369.695C1752.55 369.453 1752.81 369.323 1753.09 369.323C1753.25 369.323 1753.41 369.37 1753.56 369.468C1753.94 369.73 1754.05 370.255 1753.79 370.641C1752.99 371.821 1751.74 372.595 1750.45 372.72C1750.43 372.721 1750.41 372.723 1750.4 372.724C1750.29 372.733 1750.19 372.737 1750.08 372.737C1749.07 372.737 1748.11 372.319 1747.37 371.541C1745.42 369.494 1747.01 367.429 1748.06 366.063C1748.44 365.564 1748.8 365.094 1749 364.68C1749.32 363.991 1749.38 363.361 1749.16 362.809C1748.91 362.194 1748.3 361.678 1747.45 361.356C1747.11 361.225 1746.75 361.116 1746.37 361.001C1745.41 360.712 1744.42 360.415 1743.57 359.735C1742.59 358.95 1741.97 357.733 1741.91 356.481C1741.85 355.229 1742.34 354.231 1742.78 353.35C1743.39 352.108 1743.76 351.359 1742.78 350.153C1742.41 349.692 1741.9 349.269 1741.36 348.82C1740.05 347.73 1738.57 346.495 1738.7 344.316C1738.79 342.719 1739.74 341.733 1740.57 340.863C1741.14 340.269 1741.68 339.707 1741.93 338.991C1742.62 337.014 1742.39 334.332 1740.32 332.797C1739.94 332.519 1739.86 331.989 1740.14 331.614C1740.31 331.39 1740.56 331.272 1740.82 331.272ZM1740.82 330.303C1740.25 330.303 1739.7 330.578 1739.36 331.038C1738.77 331.841 1738.94 332.979 1739.74 333.575C1741.42 334.818 1741.59 337.031 1741.02 338.673C1740.84 339.189 1740.39 339.654 1739.88 340.192C1738.97 341.134 1737.85 342.306 1737.73 344.259C1737.57 346.926 1739.4 348.451 1740.74 349.565C1741.24 349.982 1741.72 350.376 1742.03 350.764C1742.6 351.466 1742.52 351.691 1741.91 352.921C1741.45 353.858 1740.87 355.025 1740.94 356.528C1741.02 358.054 1741.77 359.535 1742.97 360.491C1743.96 361.288 1745.09 361.628 1746.08 361.928C1746.45 362.039 1746.8 362.143 1747.11 362.262C1747.69 362.484 1748.11 362.815 1748.26 363.171C1748.38 363.466 1748.33 363.824 1748.12 364.265C1747.97 364.586 1747.64 365.016 1747.29 365.472C1746.27 366.8 1744.15 369.562 1746.67 372.209C1747.59 373.174 1748.8 373.706 1750.08 373.706C1750.21 373.706 1750.35 373.7 1750.48 373.689L1750.54 373.684C1752.12 373.531 1753.63 372.597 1754.59 371.184C1755.15 370.355 1754.93 369.225 1754.1 368.665C1753.8 368.461 1753.45 368.354 1753.09 368.354C1752.48 368.354 1751.92 368.652 1751.58 369.151C1751.23 369.675 1750.68 370.037 1750.19 370.072C1750.14 370.076 1750.11 370.077 1750.08 370.077C1749.89 370.077 1749.62 370.038 1749.3 369.705C1749.04 369.432 1748.92 369.308 1750.17 367.682C1750.62 367.095 1751.09 366.488 1751.4 365.817C1752.05 364.449 1752.13 363.064 1751.62 361.813C1751.09 360.502 1749.95 359.456 1748.4 358.868C1747.96 358.703 1747.52 358.57 1747.13 358.453C1746.39 358.229 1745.68 358.016 1745.24 357.658C1744.85 357.348 1744.59 356.846 1744.57 356.35C1744.54 355.788 1744.83 355.204 1745.16 354.529C1745.81 353.21 1746.9 351.007 1744.85 348.479C1744.31 347.812 1743.65 347.261 1743.06 346.774C1741.94 345.839 1741.3 345.271 1741.35 344.473C1741.39 343.88 1741.75 343.481 1742.49 342.705C1743.17 342.003 1744.01 341.129 1744.45 339.864C1745.66 336.383 1744.63 332.684 1741.9 330.659C1741.58 330.426 1741.21 330.303 1740.82 330.303Z" fill="#0C1A40"/>
<path d="M1756.44 329.268C1755.16 329.113 1754.64 328.185 1754.23 327.741C1754.14 327.646 1753.93 327.714 1753.9 327.845C1753.88 327.931 1753.88 328.021 1753.87 328.11C1753.78 331.354 1751.02 334.003 1748.11 332.408C1747.24 331.93 1746.66 331.071 1746.64 331.043C1746.41 330.786 1746.18 330.823 1746.1 331.139C1744.83 335.801 1739.42 336.235 1737.42 332.213C1737.34 332.054 1737.24 331.897 1737.14 331.752C1737.06 331.641 1736.87 331.649 1736.79 331.761C1736.48 332.207 1736.27 332.899 1735.27 333.632C1734.05 334.528 1732.49 334.464 1731.29 333.632C1730.95 333.402 1730.67 333.158 1730.44 332.906C1729.56 331.966 1729.29 330.916 1728.99 330.008C1728.92 329.806 1728.68 329.755 1728.59 329.978C1727.52 332.711 1723 332.765 1721.75 329.163C1721.29 327.844 1721.7 326.682 1722.41 325.586C1723.08 324.567 1724.13 323.893 1724.9 322.951C1726.6 320.836 1725.96 318.382 1727.58 315.282C1727.95 314.559 1728.45 313.801 1729.13 313.001C1734.82 306.291 1747.21 306.216 1752.79 313.208C1752.98 313.443 1753.16 313.682 1753.32 313.931C1753.57 314.292 1753.8 314.667 1754.01 315.061C1755.16 317.191 1755.6 319.805 1757.89 321.097C1763.47 324.245 1760.57 329.756 1756.44 329.268Z" fill="#6280FF"/>
<path d="M1733.07 328.859C1731.94 328.464 1731.64 327.579 1732.07 326.893C1733.36 324.876 1737.96 325.347 1737.33 327.505C1737.02 328.555 1734.88 329.487 1733.07 328.859Z" fill="#FF8DDF"/>
<path d="M1749.71 327.46C1750.75 326.882 1750.91 325.958 1750.36 325.355C1748.76 323.58 1744.3 324.814 1745.28 326.836C1745.76 327.819 1748.03 328.381 1749.71 327.46Z" fill="#FF8DDF"/>
<g opacity="0.5">
<path opacity="0.5" d="M1752.79 313.207C1751.84 314.301 1749.15 315.524 1746.92 314.46C1745.23 313.648 1745.07 313.148 1744.74 313.206C1744.56 313.237 1745.64 318.414 1742.14 320.35C1740.83 321.076 1739.57 320.906 1738.38 320.103C1737.14 319.266 1736.48 318.006 1736.07 316.603C1735.54 314.806 1735.89 313.598 1735.44 314.021C1734.4 314.999 1733.39 315.997 1731.82 316.472C1730.7 316.808 1729.65 316.667 1728.65 316.098C1728.34 315.916 1727.84 315.606 1727.57 315.281C1727.85 314.753 1728.18 314.208 1728.62 313.641C1728.77 313.433 1728.94 313.22 1729.13 313C1731.04 310.744 1733.71 309.238 1736.62 308.501C1737.35 308.313 1738.09 308.178 1738.83 308.09C1739.46 308.017 1740.08 307.972 1740.71 307.966C1741.45 307.955 1742.19 307.99 1742.92 308.073C1746.14 308.438 1749.23 309.697 1751.56 311.872C1752 312.285 1752.41 312.73 1752.79 313.207Z" fill="white"/>
</g>
<path d="M1742.83 316.424C1741.86 320.073 1736.82 319.538 1737.53 311.89C1737.67 310.441 1738.33 308.593 1738.83 308.09C1739.46 308.017 1740.08 307.972 1740.71 307.966C1742.43 309.308 1743.4 314.275 1742.83 316.424Z" fill="white"/>
<path d="M1732.82 313.508C1731.53 314.278 1730.04 314.629 1728.79 313.779C1728.72 313.73 1728.66 313.684 1728.62 313.641C1730.61 310.991 1733.45 309.305 1736.62 308.501C1736.81 308.658 1735.7 311.781 1732.82 313.508Z" fill="white"/>
<path d="M1751.56 311.872C1749.16 314.115 1744.76 311.346 1743.08 308.446C1743.01 308.328 1742.89 308.207 1742.92 308.073C1746.14 308.439 1749.23 309.697 1751.56 311.872Z" fill="white"/>
<g opacity="0.75">
<path opacity="0.75" d="M1725.89 324.653C1727.25 323.063 1727.87 321.014 1728.2 318.977C1728.31 318.332 1728.53 317.263 1729.06 318.194C1729.64 319.202 1729.36 322.026 1728.76 323.449C1728.25 324.663 1727.56 325.866 1726.57 326.754C1726.04 327.236 1724.51 328.344 1723.8 327.755C1722.87 326.979 1725.38 325.243 1725.89 324.653Z" fill="white"/>
</g>
<g opacity="0.25">
<path opacity="0.25" d="M1756.44 329.268C1755.16 329.113 1754.64 328.185 1754.23 327.74C1754.14 327.646 1753.93 327.714 1753.9 327.844C1753.88 327.931 1753.88 328.02 1753.87 328.11C1753.78 331.353 1751.02 334.003 1748.11 332.408C1747.24 331.93 1746.66 331.07 1746.64 331.043C1746.41 330.786 1746.18 330.822 1746.1 331.139C1744.83 335.8 1739.42 336.234 1737.42 332.212C1737.34 332.053 1737.24 331.896 1737.14 331.752C1737.06 331.64 1736.87 331.648 1736.79 331.761C1736.48 332.207 1736.27 332.899 1735.27 333.632C1734.05 334.527 1732.49 334.464 1731.29 333.632C1730.95 333.401 1730.67 333.158 1730.44 332.905C1730.87 332.844 1731.4 332.651 1731.94 331.906C1732.8 330.709 1734.04 329.311 1736.01 329.091C1739.01 328.758 1739.66 331.002 1741.42 330.956C1743.45 330.9 1743.44 328.665 1744.69 327.572C1746.45 326.019 1748.08 327.257 1749.96 327.59C1753.79 328.27 1750.97 322.797 1750.7 321.294C1750.17 318.416 1751.01 315.783 1753.32 313.93C1753.57 314.291 1753.8 314.666 1754.01 315.06C1755.16 317.19 1755.6 319.804 1757.89 321.096C1763.47 324.244 1760.57 329.756 1756.44 329.268Z" fill="#312BBF"/>
</g>
<path d="M1740.99 326.726C1740.38 326.726 1739.8 326.519 1739.29 326.117C1738.49 325.488 1737.95 324.429 1737.89 323.355C1737.88 323.088 1738.08 322.86 1738.35 322.844C1738.62 322.83 1738.84 323.033 1738.86 323.301C1738.9 324.094 1739.31 324.9 1739.89 325.355C1740.19 325.591 1740.68 325.845 1741.33 325.725C1742.61 325.488 1743.18 324.113 1743.07 322.938C1743.05 322.671 1743.24 322.435 1743.51 322.41C1743.77 322.39 1744.01 322.581 1744.04 322.848C1744.19 324.45 1743.35 326.336 1741.51 326.677C1741.33 326.71 1741.16 326.726 1740.99 326.726Z" fill="#0C1A40"/>
<path d="M1746.9 323.219C1746.48 323.219 1746.07 323.075 1745.71 322.794C1745.06 322.29 1744.62 321.398 1744.56 320.465C1744.55 320.198 1744.75 319.968 1745.02 319.953C1745.29 319.935 1745.52 320.141 1745.53 320.408C1745.57 321.05 1745.88 321.7 1746.3 322.027C1746.55 322.217 1746.81 322.285 1747.09 322.231C1747.9 322.072 1748.25 321.055 1748.16 320.178C1748.14 319.911 1748.34 319.676 1748.6 319.651C1748.86 319.623 1749.1 319.822 1749.13 320.089C1749.25 321.388 1748.64 322.913 1747.28 323.181C1747.15 323.207 1747.03 323.219 1746.9 323.219Z" fill="#0C1A40"/>
<path d="M1734.75 324.242C1734.33 324.242 1733.92 324.098 1733.56 323.816C1732.91 323.313 1732.47 322.42 1732.41 321.487C1732.4 321.22 1732.6 320.99 1732.87 320.974C1733.12 320.955 1733.36 321.163 1733.38 321.43C1733.42 322.072 1733.73 322.722 1734.15 323.049C1734.39 323.24 1734.66 323.307 1734.94 323.254C1735.74 323.094 1736.09 322.077 1736.01 321.2C1735.99 320.933 1736.18 320.698 1736.45 320.673C1736.71 320.651 1736.95 320.844 1736.98 321.111C1737.09 322.409 1736.49 323.935 1735.13 324.204C1735 324.229 1734.88 324.242 1734.75 324.242Z" fill="#0C1A40"/>
<path d="M1740.93 307.969C1745.83 307.969 1750.7 309.98 1753.32 313.93C1755.15 316.553 1755.28 319.62 1757.89 321.095C1763.24 324.112 1760.8 329.298 1756.96 329.298C1756.79 329.298 1756.62 329.288 1756.44 329.267C1755.16 329.113 1754.64 328.185 1754.23 327.74C1754.2 327.71 1754.16 327.696 1754.12 327.696C1754.03 327.696 1753.92 327.756 1753.9 327.844C1753.88 327.931 1753.87 328.02 1753.87 328.11C1753.8 330.684 1752.05 332.885 1749.87 332.885C1749.3 332.885 1748.71 332.737 1748.11 332.408C1747.23 331.93 1746.66 331.07 1746.63 331.043C1746.54 330.929 1746.44 330.873 1746.35 330.873C1746.24 330.873 1746.14 330.962 1746.1 331.139C1745.41 333.672 1743.5 334.956 1741.58 334.956C1739.96 334.956 1738.33 334.049 1737.42 332.212C1737.23 331.818 1737.1 331.658 1736.98 331.658C1736.66 331.658 1736.42 332.786 1735.27 333.632C1734.67 334.071 1733.99 334.28 1733.31 334.28C1732.6 334.28 1731.9 334.055 1731.29 333.632C1729.83 332.623 1729.47 331.45 1728.99 330.008C1728.95 329.897 1728.86 329.831 1728.77 329.831C1728.7 329.831 1728.63 329.876 1728.59 329.977C1728.09 331.261 1726.82 331.953 1725.49 331.953C1723.99 331.953 1722.41 331.072 1721.75 329.161C1720.72 326.181 1724.07 323.972 1724.89 322.95C1726.99 320.34 1725.54 317.224 1729.13 313C1731.99 309.628 1736.48 307.969 1740.93 307.969ZM1740.93 307H1740.93C1735.86 307 1731.29 308.959 1728.39 312.373C1726.18 314.967 1725.73 317.233 1725.37 319.053C1725.1 320.365 1724.9 321.402 1724.14 322.343C1724.02 322.493 1723.77 322.733 1723.5 322.987C1722.21 324.213 1719.8 326.495 1720.83 329.478C1721.56 331.571 1723.39 332.923 1725.49 332.923C1726.7 332.923 1727.79 332.475 1728.57 331.715C1728.98 332.693 1729.56 333.612 1730.73 334.428C1731.51 334.965 1732.4 335.248 1733.31 335.248C1734.23 335.248 1735.1 334.959 1735.84 334.412C1736.32 334.06 1736.67 333.668 1736.94 333.316C1738.01 334.966 1739.7 335.926 1741.58 335.926C1743.78 335.926 1745.67 334.617 1746.63 332.508C1746.91 332.775 1747.25 333.043 1747.64 333.257C1748.37 333.653 1749.11 333.854 1749.87 333.854C1752.11 333.854 1754.04 332.031 1754.65 329.569C1755.07 329.879 1755.61 330.143 1756.33 330.23C1756.54 330.255 1756.75 330.267 1756.96 330.267C1759.24 330.267 1761.23 328.764 1761.8 326.611C1762.03 325.707 1762.49 322.577 1758.37 320.252C1757.01 319.488 1756.43 318.134 1755.76 316.567C1755.32 315.52 1754.85 314.437 1754.12 313.377C1751.47 309.39 1746.54 307 1740.93 307Z" fill="#0C1A40"/>
<path fill-rule="evenodd" clip-rule="evenodd" d="M1333.23 264.077C1267.81 264.077 1202.41 299.928 1137 302.645V348.737C1202.41 346.02 1267.81 310.169 1333.23 310.169C1401.23 310.169 1469.23 348.894 1537.23 348.894C1605.15 348.894 1673.16 310.169 1741.16 310.169C1809.16 310.169 1877.07 348.894 1945.08 348.894C2013.08 348.894 2081.08 310.169 2149 310.169C2217 310.169 2285 348.894 2353.01 348.894C2420.92 348.894 2488.93 310.169 2556.93 310.169C2622.34 310.169 2687.74 346.02 2753.15 348.737V302.645C2687.74 299.928 2622.34 264.077 2556.93 264.077C2488.93 264.077 2420.92 302.802 2353.01 302.802C2285 302.802 2217 264.077 2149 264.077C2081.08 264.077 2013.08 302.802 1945.08 302.802C1877.07 302.802 1809.15 264.077 1741.16 264.077C1673.16 264.077 1605.15 302.802 1537.23 302.802C1469.23 302.802 1401.23 264.077 1333.23 264.077Z" fill="#8BDEF5"/>
<path fill-rule="evenodd" clip-rule="evenodd" d="M1538.08 103.817C1470.07 103.817 1402.07 142.542 1334.07 142.542C1268.66 142.542 1203.25 106.692 1137.84 103.974V150.066C1203.25 152.732 1268.66 188.583 1334.07 188.583C1402.07 188.583 1470.07 149.909 1538.08 149.909C1605.99 149.909 1674 188.583 1742 188.583C1768.49 188.583 1794.88 182.729 1821.37 175.571C1862.88 164.334 1904.41 149.911 1945.92 149.911C1987.44 149.911 2028.96 164.336 2070.47 175.571C2096.96 182.729 2123.45 188.583 2149.84 188.583C2217.84 188.583 2285.85 149.909 2353.85 149.909C2421.77 149.909 2489.77 188.583 2557.77 188.583C2623.18 188.583 2688.59 152.732 2754 150.066V103.974C2688.59 106.692 2623.18 142.542 2557.77 142.542C2489.77 142.542 2421.77 103.817 2353.85 103.817C2301.06 103.817 2248.36 127.073 2195.66 137.526C2180.35 140.557 2165.15 142.542 2149.84 142.542C2081.93 142.542 2013.92 103.817 1945.92 103.817C1877.92 103.817 1810 142.542 1742 142.542C1726.79 142.542 1711.49 140.557 1696.28 137.526C1643.49 127.073 1590.78 103.817 1538.08 103.817Z" fill="#52CEF0"/>
<path fill-rule="evenodd" clip-rule="evenodd" d="M-88.1578 388.497H1527.99V83.6135C1527.99 69.0858 1515.73 60.7251 1489.43 55.6551C1436.63 45.4636 1384.47 22 1331.77 22C1263.77 22 1195.76 60.725 1127.84 60.725C1059.84 60.725 991.839 22 923.837 22C855.924 22 787.916 60.725 719.915 60.725C651.913 60.725 583.994 22 515.996 22C447.994 22 379.99 60.725 312.073 60.725C244.072 60.725 176.067 22 108.066 22C55.1841 22 3.28415 45.2037 -49.5943 55.6551C-82.5202 62.1336 -88.1578 75.4094 -88.1578 83.6135L-88.1578 388.497Z" fill="#62D9FA"/>
<path fill-rule="evenodd" clip-rule="evenodd" d="M-88 150.158V388H1528V150.158C1462.6 152.852 1397.2 189.069 1331.79 189.069C1263.8 189.069 1195.8 150 1127.89 150C1059.89 150 991.895 189.069 923.9 189.069C855.993 189.069 787.992 150 719.997 150C652.002 150 584.089 189.069 516.097 189.069C448.102 189.069 380.103 150 312.194 150C244.198 150 176.2 189.069 108.205 189.069C42.8013 189.069 -22.5962 152.852 -88 150.158H-88Z" fill="#98E5FA"/>
<path fill-rule="evenodd" clip-rule="evenodd" d="M108.069 283.769C42.6557 283.769 -22.7479 319.62 -88.1578 322.337V393.097C-88.1578 409.874 -74.0197 416.144 -48.6979 416.144H1488.53C1516.18 416.144 1527.99 408.827 1527.99 393.097V322.337C1462.58 319.62 1397.18 283.769 1331.77 283.769C1263.77 283.769 1195.76 322.494 1127.84 322.494C1059.84 322.494 991.839 283.769 923.837 283.769C855.924 283.769 787.916 322.494 719.915 322.494C651.913 322.494 583.994 283.769 515.996 283.769C447.994 283.769 379.989 322.494 312.073 322.494C244.075 322.494 176.07 283.769 108.069 283.769Z" fill="#C8EFFC"/>
<path fill-rule="evenodd" clip-rule="evenodd" d="M107.227 267.077C41.8136 267.077 -23.5901 302.928 -89 305.645V351.737C-23.5901 349.02 41.8136 313.169 107.227 313.169C175.228 313.169 243.233 351.894 311.234 351.894C379.15 351.894 447.155 313.169 515.157 313.169C583.158 313.169 651.074 351.894 719.076 351.894C787.077 351.894 855.085 313.169 922.998 313.169C991 313.169 1059 351.894 1127.01 351.894C1194.92 351.894 1262.93 313.169 1330.93 313.169C1396.34 313.169 1462.59 345.875 1528 348.592V302.5C1462.59 299.783 1396.34 267.077 1330.93 267.077C1262.93 267.077 1194.92 305.802 1127.01 305.802C1059 305.802 991 267.077 922.998 267.077C855.085 267.077 787.077 305.802 719.076 305.802C651.074 305.802 583.155 267.077 515.157 267.077C447.155 267.077 379.15 305.802 311.234 305.802C243.233 305.802 175.228 267.077 107.227 267.077Z" fill="#8BDEF5"/>
<path d="M144.273 140.446C136.141 135.378 137.066 131.074 134.624 126.867C133.521 124.969 132.178 123.214 130.707 121.587C129.288 120.017 127.739 118.556 126.067 117.258C120.349 112.829 118.533 114.246 111.102 108.666C110.931 108.536 110.588 108.357 110.729 108.157C111.031 107.735 112.685 110.065 118.31 112.575C121.494 113.99 123.512 114.627 127.144 117.638C132.8 122.339 132.217 124.022 134.918 125.077C137.129 125.942 139.589 127.07 143.068 126.125C145.198 125.551 147.174 124.267 147.802 122.135C148.115 121.06 147.187 120.167 145.804 120.337C143.718 120.599 143.772 121.372 141.801 121.791C139.663 122.244 137.217 121.773 134.689 119.864C130.562 116.743 130.678 114.971 125.792 111.232C122.382 108.624 120.065 108.043 119.435 107.593C119.098 107.354 118.988 107.529 117.776 107.071C115.852 106.349 115.039 106.529 113.433 105.765C112.941 105.532 111.53 105.201 109.664 103.764C106.074 100.992 105.127 96.3843 106.161 92.4989C109.969 78.2149 93.5331 67.219 79.7621 75.5751C73.4377 79.4166 70.4862 87.5807 74.8914 95.9246C76.8277 99.5869 80.274 103.114 82.2834 104.445C82.9327 104.878 83.9196 105.705 84.1965 106.444C84.5884 107.498 83.7816 108.298 82.9598 108.445C81.3002 108.743 76.5742 107.982 71.8835 111.042C67.9281 113.623 66.2879 117.527 66.3897 120.727C66.5646 126.384 70.4533 128.078 70.5408 131.867C70.5615 132.948 69.8193 133.761 68.7538 133.862C66.7486 134.052 65.936 133.042 62.4796 131.894C61.8102 131.673 61.0991 131.672 60.4026 131.812C58.9169 132.117 58.2652 133.482 58.9578 134.826C59.9215 136.694 62.632 137.401 63.8797 137.912C66.1374 138.832 69.5383 139.052 72.0944 137.621C74.194 136.449 75.6747 133.896 75.1805 130.998C74.8634 129.118 74.2936 127.319 73.4496 125.607C72.4822 123.65 72.0968 121.478 73.3856 119.719C74.7841 117.815 77.6732 116.989 80.0126 116.857C81.4867 116.777 81.1046 115.102 86.464 111.942C86.6791 111.813 86.9284 111.696 86.9927 111.873C87.2081 112.419 81.4851 114.159 78.7978 120.718C78.5754 121.264 78.4626 121.83 78.2987 122.392C76.4691 128.806 80.5092 132.327 77.6561 137.485C75.4639 141.443 75.385 145.16 78.5568 148.506C82.2941 152.455 85.2364 150.402 83.9945 148.372C83.2404 147.135 80.1055 144.136 81.462 140.993C81.9071 139.954 83.245 138.992 84.1978 135.262C85.4784 130.243 82.7212 128.563 84.851 125.093C86.401 122.558 89.3208 122.192 88.968 123.016C88.4753 124.17 88.2434 124.466 88.1429 124.751C87.6608 126.092 87.0627 127.391 86.7002 128.78C82.9638 143.176 93.5511 146.909 96.6235 149.72C101.22 153.92 100.41 156.549 101.406 158.44C102.828 161.144 107.641 157.283 103.536 150.15C100.046 144.089 97.5967 144.772 94.5867 140.199C92.7324 137.377 92.7979 134.22 94.1519 131.467C95.1814 129.39 95.2049 130.024 96.7451 127.863C98.0315 126.062 98.3212 125.298 99.1914 123.056C100.331 120.104 99.8209 118.182 100.212 118.158C100.545 118.139 100.444 120.563 99.6744 122.984C98.1272 127.833 97.5263 124.791 98.0382 130.707C98.5035 136.059 100.765 142.097 103.65 146.574C106.636 151.22 108.829 152.803 110.899 154.573C112.831 156.225 114.046 158.183 113.706 160.726C113.56 161.848 113.089 162.047 112.972 163.416C112.779 165.647 115.579 166.32 116.997 164.26C119.136 161.147 117.996 156.982 116.19 153.664C113.303 148.362 111.415 148.615 107.984 141.215C105.514 135.889 103.847 127.701 104.884 117.713C104.894 117.607 104.966 117.198 105.123 117.213C105.641 117.255 104.358 120.959 105.215 129.369C105.289 130.089 105.441 130.674 106.206 130.903C113.003 135.218 117.967 143.684 119.382 151.896C120.404 157.817 127.113 161.78 129.401 161.293C131.603 160.826 130.611 158.354 128.685 156.853C124.603 153.658 122.298 149.472 122.338 143.47C122.36 140.917 122.071 138.404 121.492 135.922C120.874 133.269 120.13 133.601 120.071 133.095C120.103 133.091 120.137 133.077 120.156 133.085C121.153 133.616 122.357 135.412 122.911 136.641C124.533 140.223 124.468 142.35 125.473 145.629C128.275 154.785 134.062 155.388 134.467 152.418C134.704 150.66 133.365 149.843 130.803 145.298C128.24 140.759 129.397 138.119 128.889 134.507C128.404 131.074 127.458 129.709 126.503 127.795C126.024 126.843 131.165 129.105 133.777 135.742C136.39 142.378 141.573 144.468 144.141 143.545C145.823 142.942 145.536 141.233 144.273 140.446ZM91.8524 118.045C90.1791 120.85 89.7086 121.75 89.4174 122.143C89.5255 120.87 92.4137 116.585 92.5767 116.678C92.8329 116.82 92.4164 117.086 91.8524 118.045Z" fill="#6280FF"/>
<path d="M101.95 81.2043C102.562 81.92 102.43 82.9888 101.829 83.6902C100.293 85.4815 96.4767 84.0885 97.2978 81.6781C97.9011 79.9072 100.832 79.896 101.95 81.2043Z" fill="#FF8DDF"/>
<path d="M88.4326 75.4895C89.2114 76.0187 89.3652 77.0848 88.9701 77.9196C87.9603 80.0518 83.9116 79.713 84.0692 77.1716C84.1846 75.3042 87.0091 74.5221 88.4326 75.4895Z" fill="#FF8DDF"/>
<path d="M79.4851 85.338C80.2703 85.8578 80.437 86.9221 80.0519 87.7615C79.068 89.9056 75.0154 89.6158 75.1421 87.0726C75.2354 85.2042 78.0501 84.3877 79.4851 85.338Z" fill="#FF8DDF"/>
<path d="M96.0565 76.4403C96.5952 77.0701 96.4788 78.011 95.9496 78.6286C94.598 80.205 91.2385 78.979 91.9612 76.8574C92.492 75.2986 95.0718 75.2889 96.0565 76.4403Z" fill="#FF8DDF"/>
<path d="M85.78 92.3368C86.3976 92.8895 86.4076 93.8374 85.9652 94.5196C84.8355 96.2621 81.3425 95.4937 81.7767 93.2947C82.0957 91.6796 84.6511 91.3264 85.78 92.3368Z" fill="#FF8DDF"/>
<path d="M96.3161 87.824C96.9334 88.377 96.9428 89.3249 96.5004 90.0068C95.3697 91.7487 91.8774 90.9787 92.3125 88.7801C92.6318 87.1653 95.1875 86.8134 96.3161 87.824Z" fill="#FF8DDF"/>
<path d="M83.7508 80.4902C84.4187 80.9811 84.5198 81.9235 84.1451 82.6453C83.188 84.4883 79.6375 84.0593 79.8581 81.829C80.0202 80.1901 82.5299 79.5929 83.7508 80.4902Z" fill="#FF8DDF"/>
<path d="M89.574 83.921C88.9238 83.41 88.8521 82.3976 89.3991 81.7075C90.1318 80.783 91.8612 80.8513 92.5501 81.8004C93.0559 82.4972 92.9027 83.4378 92.2324 83.964C91.5895 84.4685 90.4423 84.6032 89.574 83.921Z" fill="#FF8DDF"/>
<path d="M85.4671 89.031C84.7773 88.5752 84.6225 87.5719 85.1112 86.8391C85.7657 85.8577 87.4948 85.784 88.2592 86.673C88.8205 87.326 88.7449 88.276 88.12 88.8555C87.5207 89.4113 86.3882 89.6398 85.4671 89.031Z" fill="#FF8DDF"/>
<path d="M100.854 89.1351C100.204 88.6242 100.132 87.6117 100.679 86.9216C101.412 85.9971 103.141 86.0654 103.83 87.0145C104.336 87.7113 104.183 88.6519 103.512 89.1781C102.869 89.6826 101.722 89.8173 100.854 89.1351Z" fill="#FF8DDF"/>
<g opacity="0.5">
<g opacity="0.5">
<path opacity="0.5" d="M69.336 118.421C68.9475 118.971 68.6706 118.177 68.7196 117.857C69.3323 113.855 74.7658 110.148 77.6835 110.714C78.1086 110.796 78.6165 110.997 78.6808 111.487C78.8846 113.038 75.7247 112.609 73.2899 114.23C71.6854 115.298 70.4356 116.863 69.336 118.421Z" fill="white"/>
</g>
<g opacity="0.5">
<path opacity="0.5" d="M76.1967 91.0599C76.4243 89.864 77.282 91.9685 77.5842 92.5651C80.5403 98.4066 85.06 100.142 85.2118 101.845C85.2983 102.813 84.0189 102.639 83.4452 102.33C81.1226 101.08 75.3493 95.5084 76.1967 91.0599Z" fill="white"/>
</g>
</g>
<g opacity="0.25">
<g opacity="0.25">
<path opacity="0.25" d="M113.893 165.299C112.616 164.554 115.33 164.513 115.653 161.05C115.775 159.737 115.626 158.445 115.233 157.167C113.193 150.529 107.911 148.95 106.021 141.68C105.669 140.327 105.286 138.976 105.108 137.584C104.965 136.458 104.554 133.485 105.018 132.113C105.03 132.076 105.199 132.02 105.222 132.102C105.519 133.163 105.823 135.503 107.086 138.924C110.231 147.447 113.16 148.215 116.058 153.411C117.313 155.662 118.375 158.364 118.128 161.02C117.919 163.27 116.129 166.604 113.893 165.299Z" fill="#0C1A40"/>
</g>
<g opacity="0.25">
<path opacity="0.25" d="M102.068 159.098C101.132 158.53 103.337 157.721 102.573 154.504C100.838 147.211 96.0212 146.976 92.8405 141.611C90.8853 138.313 90.6127 133.961 93.101 130.996C93.3399 130.711 94.9413 128.851 95.455 129.213C95.7862 129.448 94.4578 130.026 93.6489 132.773C92.8856 135.365 92.9283 137.648 94.5422 140.134C96.4301 143.041 99.2246 144.778 100.166 145.71C102.486 148.007 104.424 151.028 105.046 154.232C105.721 157.71 103.496 159.963 102.068 159.098Z" fill="#0C1A40"/>
</g>
<g opacity="0.25">
<path opacity="0.25" d="M108.477 115.133C108.611 115.145 108.664 115.223 108.684 115.305C109.191 117.324 108.692 116.715 109.589 118.831C110.525 121.04 111.53 123.232 112.828 125.256C115.391 129.252 120.481 132.941 121.164 134.747C121.484 135.591 121.637 136.546 121.81 137.431C121.955 138.172 122.318 139.292 122.176 140.041C122.193 140.277 122.239 140.595 122.077 140.588C121.953 140.582 121.828 140.306 121.781 140.191C119.006 133.476 110.86 131.014 108.442 124.084C107.574 121.596 107.082 117.752 108.323 115.286C108.356 115.218 108.435 115.173 108.477 115.133Z" fill="#0C1A40"/>
</g>
<g opacity="0.25">
<path opacity="0.25" d="M135.86 139.535C132.917 135.548 133.466 131.757 127.399 127.835C126.834 127.47 126.643 127.745 125.407 127.206C124.551 126.832 124.724 126.174 125.146 125.973C126.296 125.424 128.081 126.02 129.231 126.661C133.017 128.77 134.032 132.633 137.433 137.683C138.999 140.008 141.897 142.352 144.684 142.522C145.081 142.547 145.161 142.75 145.021 142.925C143.974 144.238 141.879 143.787 140.546 143.251C138.658 142.493 137.093 141.205 135.86 139.535Z" fill="#0C1A40"/>
</g>
<g opacity="0.25">
<path opacity="0.25" d="M81.9894 140.108C79.4215 143.539 83.3172 147.217 84.0454 148.463C85.11 150.284 82.4214 151.333 82.5576 150.35C82.7368 149.059 81.5064 148.102 80.777 146.961C79.2106 144.511 79.0458 142.554 79.4967 140.817C80.5321 136.827 82.3379 137.139 82.0869 133.364C81.8401 129.65 81.7645 125.835 85.4494 123.676C85.6264 123.572 85.8784 123.33 86.0396 123.56C86.1414 123.706 85.8312 123.86 85.6968 124.003C83.5573 126.275 83.8501 128.501 84.4052 131.813C84.8376 134.392 83.5497 138.023 81.9894 140.108Z" fill="#0C1A40"/>
</g>
<g opacity="0.25">
<path opacity="0.25" d="M60.3916 136.379C59.77 135.937 59.2524 135.409 58.9364 134.777C58.849 134.601 58.6686 134.38 58.8279 134.215C59.0236 134.012 59.1924 134.282 59.3404 134.38C62.2892 136.342 65.8163 137.019 68.8174 136.695C71.2229 136.435 73.229 133.959 72.9575 131.583C72.6501 128.889 71.4048 126.226 71.6462 123.529C71.6653 123.314 72.0883 120.843 72.5535 121.138C72.6638 121.207 72.6382 121.54 72.6224 121.631C72.1221 124.52 74.42 126.083 75.1903 131.067C75.9678 136.1 71.3814 139.981 64.7099 138.191C63.3983 137.839 61.6734 137.291 60.3916 136.379Z" fill="#0C1A40"/>
</g>
<g opacity="0.25">
<path opacity="0.25" d="M125.896 146.616C124.927 143.605 125.466 145.964 124.458 141.397C123.242 135.89 121.313 134.692 122.428 134.848C124.892 135.196 125.925 138.769 126.402 140.781C127.004 143.319 127.893 145.747 128.984 148.116C131.295 153.129 135.101 151.816 134.188 153.215C132.909 155.173 128.194 153.752 125.896 146.616Z" fill="#0C1A40"/>
</g>
<g opacity="0.25">
<path opacity="0.25" d="M133.734 124.467C132.608 123.68 132.531 122.703 128.901 119.194C128.797 119.092 128.703 118.979 128.604 118.873C128.416 118.67 128.579 118.297 129.622 118.624C133.624 119.879 136.065 125.971 142.876 124.295C145.121 123.743 146.52 122.464 147.501 121.734C147.995 121.365 147.757 122.269 147.706 122.431C146.585 125.981 141.675 126.824 138.539 126.292C137.229 126.07 134.363 124.906 133.734 124.467Z" fill="#0C1A40"/>
</g>
</g>
<path d="M58.2759 134.913C57.8231 133.899 57.8953 132.745 58.735 131.958C59.5842 131.162 60.8563 130.948 61.976 131.093C65.2952 131.521 67.7388 134.406 69.4408 132.824C70.6373 131.712 69.2364 129.407 68.591 128.315C67.8823 127.116 67.0966 126.095 66.5667 124.781C64.2608 119.063 66.677 112.338 73.9081 109.253C78.1119 107.459 81.6256 108.032 82.8248 107.81C83.8626 107.618 84.1527 106.646 82.1405 105.175C75.4764 100.305 70.3948 91.8926 72.6382 83.8806C76.0452 71.7135 94.647 66.9052 104.335 79.0552C106.916 82.2931 108.232 87.3092 106.679 93.4697C106.218 95.2963 106.446 97.8054 107.281 99.7246C109.684 105.242 115.994 105.357 121.088 107.618C129.699 111.399 131.853 118.222 137.246 120.609C138.117 120.995 139.054 121.233 140.007 121.271C143.198 121.4 144.236 119.166 146.811 119.708C148.939 120.155 149.305 122.738 146.694 124.996C145.311 126.192 143.52 126.844 141.717 127.044C138.444 127.408 136.794 126.438 134.958 125.883C134.941 125.877 134.874 125.951 134.875 125.987C134.882 126.216 135.935 127.209 137.467 131.893C138.6 135.359 140.994 137.687 144.006 139.462C147.305 141.407 146.112 144.459 142.968 144.409C138.871 144.344 135.546 141.097 133.807 137.376C132.942 135.524 131.745 131.884 128.348 129.275C128.196 129.158 127.683 128.747 127.526 128.86C127.414 128.941 127.518 129.07 127.575 129.167C128.79 131.242 129.817 132.607 129.72 138.278C129.64 142.921 131.491 145.369 134.211 149.504C136.146 152.445 134.846 154.483 132.816 154.638C130.198 154.84 128.163 152.599 126.816 150.329C124.01 145.601 124.354 142.043 122.788 138.178C122.767 138.128 122.663 138.154 122.66 138.201C122.622 138.909 123.021 139.376 123.025 143.868C123.029 148.376 124.541 152.368 128.059 155.44C129.08 156.331 130.91 157.589 131.29 159.441C131.512 160.527 130.832 161.801 129.479 161.96C126.257 162.339 122.022 158.713 120.284 155.984C118.712 153.514 118.861 151.749 117.95 148.587C117.658 147.574 117.304 146.579 116.897 145.607C116.723 145.192 116.513 144.504 116.412 144.296C115.172 141.747 113.799 139.275 111.991 137.076C109.282 133.782 106.126 131.434 105.947 131.619C105.793 131.778 107.171 141.399 113.161 148.218C115.829 151.255 118.441 155.463 118.802 159.468C119.449 166.655 112.899 167.948 112.328 163.898C112.012 161.658 114.616 159.932 111.783 156.404C111.302 155.804 110.737 155.273 110.13 154.802C106.859 152.263 104.121 148.894 102.081 145.214C96.2728 134.734 97.685 127.848 96.9876 128.689C96.3167 129.499 95.6065 130.281 95.0501 131.178C93.7174 133.325 93.3698 136.324 94.6296 138.924C95.5912 140.908 97.2536 142.473 98.9775 143.8C102.069 146.18 104.883 150.121 105.637 153.809C106.533 158.191 103.928 160.466 102.043 159.879C100.058 159.261 100.562 156.608 99.2929 154.109C98.6896 152.92 97.8578 151.857 96.9151 150.919C95.9115 149.92 94.7759 149.05 93.5702 148.309C89.1072 145.55 87.1864 142.457 86.2836 139.372C85.1837 135.614 86.4265 128.777 87.9058 124.803C88.0045 124.538 88.719 123.256 87.9939 123.392C86.3068 123.707 84.2255 126.172 84.748 128.822C85.316 131.702 85.5006 133.989 84.3166 137.164C82.8867 140.999 81.1622 141.176 82.0567 144.136C82.4275 145.364 83.5049 146.551 84.3196 147.65C85.0335 148.613 85.28 149.944 84.2791 150.806C81.6332 153.086 77.1811 149.052 75.9298 145.673C75.4078 144.264 75.257 142.673 75.5388 141.193C76.0599 138.065 77.7539 136.682 78.0105 134.052C78.2173 131.931 77.4608 129.88 77.2299 127.793C77.0537 126.201 77.1342 124.596 77.4337 123.024C78.2216 118.857 80.2073 117.482 79.327 117.581C76.0337 117.947 72.8722 119.543 73.2787 122.951C73.5681 125.378 75.6537 127.368 75.9194 131.875C76.1613 135.979 72.7881 139.537 67.3726 139.301C64.8126 139.19 60.7974 137.931 59.0787 136.099C58.7503 135.75 58.4721 135.352 58.2759 134.913ZM86.8342 134.764C86.7937 135.84 86.8187 136.923 86.9567 137.993C87.4667 141.942 90.2126 144.942 93.5712 147.11C102.019 152.564 100.515 156.54 101.788 158.491C102.905 160.204 106.448 157.551 103.999 151.759C102.8 148.925 100.429 146.154 98.7329 144.874C96.3981 143.112 94.1452 140.714 93.4027 138.625C92.1793 135.184 93.3158 131.352 95.0352 129.482C97.6686 126.617 99.6555 122.594 99.7374 118.553C99.7399 118.436 99.7359 118.318 99.7539 118.204C99.8358 117.676 100.591 117.662 100.663 118.178C100.703 118.466 100.729 118.761 100.707 119.049C100.283 124.606 98.0489 125.987 98.1439 127.946C98.6473 138.347 103.164 147.149 108.797 152.369C110.751 154.181 113.111 155.66 113.863 158.38C114.56 160.899 113.346 162.204 113.288 163.45C113.204 165.236 115.24 165.827 116.496 164.382C120.155 160.178 116.053 153.067 112.26 148.672C108.051 143.795 104.599 135.778 104.262 125.351C104.143 121.682 104.527 117.521 104.662 117.149C104.813 116.733 105.368 116.65 105.563 117.186C105.665 117.465 105.546 117.9 105.517 118.183C105.279 120.517 105.145 122.4 105.271 125.601C105.499 131.389 105.278 129.578 108.41 132.116C112.202 135.188 114.976 139.038 117.031 143.432C120.571 151 118.643 153.674 123.059 157.825C123.914 158.628 124.88 159.332 125.892 159.924C129.799 162.209 131.461 160.505 129.589 158.182C128.145 156.391 124.813 155.074 122.912 149.399C121.771 145.991 122.171 144.035 121.916 140.307C121.81 138.757 121.445 137.252 121.14 135.737C120.747 133.785 120.141 133.765 115.626 129.224C112.716 126.298 110.311 123.384 109.039 119.157C108.716 118.085 108.048 115.755 108.073 114.638C108.081 114.287 108.678 114.128 108.849 114.526C109.023 114.931 109.24 117.265 110.386 120.261C111.323 122.712 112.855 124.871 114.598 126.814C116.224 128.627 118.038 130.255 119.747 131.987C122.388 134.662 123.244 136.084 124.226 139.338C124.945 141.721 125.288 144.205 126.112 146.557C127.033 149.186 129.405 153.501 132.154 153.686C133.391 153.77 134.412 152.917 134.135 151.594C133.918 150.556 133.571 150.535 130.695 145.725C129.21 143.241 128.574 140.559 128.74 137.687C129.385 126.585 119.213 124.486 114.53 115.866C114.417 115.658 114.3 115.463 114.307 115.216C114.312 115.025 114.376 114.868 114.558 114.795C115.498 114.42 114.726 116.517 121.169 122.275C126.158 126.735 125.529 126.954 126.713 127.285C129.927 128.185 132.778 132.389 134.101 135.735C138.495 146.85 148.923 143.466 143.606 140.402C136.73 136.439 136.514 131.143 135.272 128.745C133.999 126.285 132.437 123.614 129.088 120.321C123.33 114.662 119.85 114.285 115.501 111.927C113.74 110.972 110.914 109.019 110.511 108.556C110.132 108.121 110.555 107.527 111.088 107.826C111.822 108.238 113.562 109.923 117.533 111.909C118.812 112.549 120.156 113.019 121.448 113.626C124.717 115.157 126.132 116.559 128.026 118.005C133.056 122.362 132.451 123.641 134.972 124.816C144.295 129.16 149.785 121.486 146.701 120.742C145.497 120.452 144.429 120.99 143.4 121.544C142.41 122.077 141.39 122.26 140.267 122.248C136.086 122.205 133.121 119.201 130.355 116.051C120.875 105.257 114.038 108.117 108.9 103.52C105.713 100.67 104.896 96.3079 105.846 92.5395C108.348 82.6103 101.76 74.6549 92.4907 73.2058C79.2844 71.1416 67.6291 83.5326 75.7067 96.7862C77.7277 100.102 80.8252 103.132 82.4437 104.173C85.4308 106.095 85.1194 108.4 82.7112 108.809C81.1984 109.066 77.1253 108.284 72.5121 111.026C66.5317 114.58 64.9388 121.431 68.6949 126.711C69.4996 127.842 70.2388 129.08 70.6157 130.427C71.5173 133.649 69.3982 134.971 66.2641 133.765C64.49 133.082 61.579 131.378 59.8432 132.341C58.7225 132.963 58.8703 134.307 59.568 135.195C61.2005 137.275 69.8863 140.71 73.6879 135.839C74.7863 134.431 75.254 132.926 74.7902 130.554C73.9295 126.148 72.4758 125.277 72.2833 122.846C71.9533 118.688 75.8326 116.877 79.9906 116.531C81.2444 116.427 80.6296 115.356 85.3263 112.278C85.7642 111.991 86.2291 111.742 86.6953 111.503C86.9795 111.358 87.1904 111.418 87.3135 111.614C87.6374 112.131 87.0006 112.421 86.6413 112.626C80.8291 115.946 77.4343 121.371 78.2256 127.985C78.5519 130.712 80.1536 134.108 77.6409 138.145C76.4721 140.023 75.8386 143.155 77.0809 145.863C77.5714 146.933 78.2883 147.879 79.1616 148.665C80.1497 149.554 81.3035 150.543 82.7139 150.459C83.7883 150.395 84.2855 149.439 83.7316 148.514C82.9851 147.268 80.8124 145.295 80.8361 142.668C80.8654 139.466 83.2502 139.505 84.0372 134.457C84.3416 132.504 84.1173 130.593 83.7578 128.669C83.2304 125.846 85.5545 122.525 88.5258 122.318C89.343 122.262 89.2461 120.497 92.0322 116.691C92.2899 116.339 92.6218 116.185 92.8975 116.48C93.1324 116.731 92.9764 116.961 92.7156 117.331C89.2635 122.224 87.0399 129.286 86.8342 134.764Z" fill="#0C1A40"/>
<path d="M99.8779 101.857C99.4787 102.916 98.4498 103.535 97.3301 103.433C95.5297 103.269 93.8834 100.936 94.4898 100.53C95.0464 100.158 95.466 101.1 95.6473 101.311C96.1369 101.883 96.8331 102.477 97.6296 102.458C98.3313 102.441 98.9211 101.979 99.0384 101.276C99.1975 100.323 98.926 99.8627 98.9211 99.4584C98.9172 99.1177 99.5433 98.7817 99.8325 99.4593C100.116 100.124 100.135 101.174 99.8779 101.857Z" fill="#0C1A40"/>
<path d="M101.403 94.7701C102.062 95.1083 102.52 96.1086 102.179 96.8149C101.705 97.7984 100.649 97.9578 100.008 97.6598C99.2621 97.3128 98.8806 96.4173 99.178 95.6455C99.5092 94.7857 100.569 94.3421 101.403 94.7701Z" fill="#0C1A40"/>
<path d="M91.797 98.0734C92.456 98.4113 92.9137 99.4119 92.5733 100.118C92.0989 101.102 91.0426 101.261 90.4018 100.963C89.6556 100.616 89.2745 99.7202 89.5718 98.9488C89.903 98.0886 90.9621 97.6453 91.797 98.0734Z" fill="#0C1A40"/>
<path fill-rule="evenodd" clip-rule="evenodd" d="M312.076 106.817C244.075 106.817 176.07 145.542 108.069 145.542C42.6557 145.542 -22.7479 109.691 -88.1578 106.974V153.066C-22.7479 155.732 42.6557 191.583 108.069 191.583C176.07 191.583 244.075 152.909 312.076 152.909C379.993 152.909 447.997 191.583 515.999 191.583C542.485 191.583 568.88 185.729 595.37 178.57C636.885 167.334 678.406 152.911 719.921 152.911C761.436 152.911 802.957 167.336 844.472 178.57C870.962 185.729 897.445 191.583 923.843 191.583C991.845 191.583 1059.85 152.909 1127.85 152.909C1195.77 152.909 1263.77 191.583 1331.77 191.583C1397.18 191.583 1462.59 153.166 1528 150.5V104.408C1462.59 107.125 1397.18 145.542 1331.77 145.542C1263.77 145.542 1195.77 106.817 1127.85 106.817C1075.06 106.817 1022.36 130.072 969.658 140.526C954.355 143.557 939.146 145.542 923.843 145.542C855.93 145.542 787.923 106.817 719.921 106.817C651.92 106.817 584 145.542 516.002 145.542C500.794 145.542 485.491 143.557 470.279 140.526C417.486 130.072 364.781 106.817 312.076 106.817Z" fill="#52CEF0"/>
</g>
<path d="M1371.3 108.751C1371.19 110.018 1370.71 111.087 1369.81 111.953C1368.68 113.04 1367.31 113.6 1365.79 113.762C1362.16 114.141 1359.98 112.432 1359.15 112.103C1359.13 112.095 1359.07 112.16 1359.03 112.197C1359.02 112.211 1359.02 112.264 1359.04 112.279C1359.2 112.413 1359.34 112.561 1359.51 112.668C1361.63 114.023 1364.85 114.751 1367.84 113.638C1368.22 113.496 1368.57 113.29 1368.94 113.116C1369.35 112.922 1369.55 113.037 1369.54 113.49C1369.53 114.387 1369.4 115.266 1369.15 116.123C1368.51 118.308 1367.33 120.125 1365.79 121.719C1362.79 124.84 1359.2 126.541 1355.27 128.042C1353.9 128.567 1350.52 129.359 1349.79 129.564C1344.33 131.095 1334.04 131.804 1323.69 129.948C1314.83 128.36 1314.49 127.08 1312.45 127.6C1310.77 128.031 1307.48 129.676 1305.52 131.413C1304.38 132.42 1301.6 135.699 1298.37 136.215C1297.61 136.336 1296.88 136.083 1296.18 135.799C1292.02 134.137 1288.42 128.569 1287.38 124.5C1285.74 118.127 1287.91 114.848 1294.13 115.686C1297.64 116.157 1305.02 119.574 1306.88 116.285C1307.03 116.029 1307.18 115.778 1307.33 115.525C1318.51 96.4954 1345.64 90.3368 1364.14 102.963C1364.67 103.325 1365.17 103.732 1365.7 104.106C1368.88 106.386 1368.1 105.811 1370.14 106.945C1370.29 107.033 1370.45 107.112 1370.59 107.214C1371.1 107.592 1371.36 108.085 1371.3 108.751Z" fill="#00D5FE"/>
<path d="M1354.12 110.559C1351.6 110.369 1348.2 107.608 1344.79 106.97C1337.86 105.676 1328.07 107.966 1323.96 113.87C1322.24 116.327 1323.76 118.631 1326.32 118.35C1331.36 117.786 1333.9 115.124 1338.52 113.072C1342.5 111.301 1344.69 116.899 1337.2 120.61C1327.27 125.533 1313.74 124.349 1305.4 131.497C1304.77 132.04 1302.94 134.289 1300.13 135.685C1292.17 139.626 1281.7 118.566 1289.74 115.969C1295.72 114.036 1300.82 119.723 1308.08 116.524C1312.07 114.768 1318.39 108.527 1324.11 105.052C1331.29 100.692 1339.97 97.9866 1348.43 99.0511C1362.62 100.837 1360.87 111.066 1354.12 110.559Z" fill="#6280FF"/>
<path d="M1347.74 116.541C1348.77 116.268 1349.65 115.999 1350.59 116.023C1352.35 116.068 1353.8 116.249 1353.47 118.147C1352.79 122.065 1349.05 126.392 1345.19 126.834C1342.12 127.185 1338.43 123.11 1340.6 120.557C1342.19 118.672 1345.64 116.917 1347.74 116.541Z" fill="#6280FF"/>
<path d="M1353.99 96.7752C1354.13 96.9604 1354.28 97.1502 1354.4 97.352C1354.49 97.5086 1354.34 97.7403 1354.16 97.7168C1353.9 97.6835 1353.64 97.6383 1353.4 97.5632C1334.78 91.9238 1313.78 101.428 1306.14 116.966C1305.96 117.324 1305.75 117.517 1305.36 117.542C1302.88 117.697 1302.12 118.072 1302.69 116.697C1312.13 93.9918 1339.82 78.8228 1353.99 96.7752Z" fill="#312BBF"/>
<path d="M1332.95 137.433C1328.88 138.455 1325.11 136.782 1321.44 134.648C1317.82 132.546 1314.34 129.619 1313.14 128.283C1312.95 128.079 1313.09 127.712 1313.42 127.733C1313.88 127.762 1325.31 132.223 1340.05 131.335C1340.31 131.319 1340.68 131.186 1340.82 131.544C1341 131.983 1337.59 136.268 1332.95 137.433Z" fill="#312BBF"/>
<path d="M1349.81 103.571C1350.86 104.29 1350.15 105.831 1349.02 105.668C1348.15 105.541 1343.96 103.454 1337.8 104.188C1327.77 105.382 1321.18 113.101 1319.83 113.355C1317.99 113.698 1321.95 107.789 1329.89 103.971C1335.77 101.144 1344.97 100.246 1349.81 103.571Z" fill="#312BBF"/>
<path d="M1319.54 122.211C1319.32 122.061 1319.1 121.892 1319.14 121.579C1319.27 120.408 1321.94 120.612 1323.83 120.463C1329.18 120.041 1338.83 114.596 1338.91 114.565C1339.63 114.286 1340.71 115.391 1337.6 117.685C1333.77 120.512 1322.71 124.331 1319.54 122.211Z" fill="#312BBF"/>
<path d="M1349.7 117.153C1350.38 116.997 1350.61 117.547 1350.32 117.749C1348.43 119.079 1347.21 119.214 1343.15 122.703C1342.8 123.004 1342.23 123.46 1341.76 123.125C1340.03 121.872 1347.06 117.752 1349.7 117.153Z" fill="#312BBF"/>
<path d="M1344.23 125.592C1343.71 125.323 1343.81 124.699 1344.23 124.346C1345.57 123.215 1346.5 122.957 1348.97 120.301C1349.73 119.484 1350.33 118.669 1350.75 119.049C1351.49 119.727 1348.02 123.695 1345.5 125.281C1345.13 125.517 1344.66 125.816 1344.23 125.592Z" fill="#312BBF"/>
<path d="M1287.29 124.209C1287.1 123.035 1286.84 121.868 1286.89 120.668C1286.91 120.181 1286.95 120.114 1287.44 120.074C1293.35 119.588 1298.17 121.753 1308.88 121.827C1309.83 121.833 1311.12 121.758 1311.91 122.394C1312.64 122.981 1312.68 124.075 1312 124.712C1310.24 126.349 1305.76 126.965 1300.39 130.947C1296.28 133.997 1296.9 136.086 1295.82 135.638C1292.32 134.187 1288.59 128.768 1287.77 125.555C1287.65 125.093 1287.35 124.696 1287.29 124.209Z" fill="#FFCF00"/>
<g opacity="0.5">
<g opacity="0.5">
<path opacity="0.5" d="M1348.16 94.0399C1347.9 94.5037 1347.55 94.3215 1346.85 94.0425C1336.63 89.997 1329.36 93.7694 1328.11 93.3616C1327.89 93.2907 1327.81 93.0531 1327.95 92.8692C1328.53 92.1465 1329.4 91.9831 1330.24 91.719C1334.05 90.5124 1337.72 89.904 1342.77 90.9284C1343.56 91.0892 1349.14 92.3188 1348.16 94.0399Z" fill="white"/>
</g>
<g opacity="0.5">
<path opacity="0.5" d="M1305.23 119.829C1301.26 120.746 1298.84 119.895 1296.18 119.295C1291.92 118.329 1292.17 118.959 1291.31 118.526C1291.06 118.397 1291.01 118.031 1291.24 117.86C1293.47 116.166 1298.97 119.289 1305.55 118.821C1305.78 118.805 1306.14 118.71 1306.22 119.044C1306.37 119.633 1305.01 119.883 1305.23 119.829Z" fill="white"/>
</g>
</g>
<g opacity="0.25">
<g opacity="0.25">
<path opacity="0.25" d="M1351.18 96.7163C1351.06 97.0201 1351.23 96.9625 1349.75 96.6851C1334.66 93.8646 1318.4 99.5757 1308.96 112.366C1306.01 116.376 1306.31 117.453 1305.49 117.526C1303.22 117.729 1302.21 117.923 1302.56 117.075C1303.81 113.944 1304.75 112.006 1306.61 109.182C1306.74 108.976 1306.95 108.877 1307.16 108.787C1311.01 107.21 1313.85 103.535 1317.08 101.004C1326.2 93.8735 1343.57 90.2001 1351.18 96.7163Z" fill="#0C1A40"/>
</g>
<g opacity="0.25">
<path opacity="0.25" d="M1322 134.44C1321.54 134.596 1321.18 134.5 1320.78 134.258C1318.17 132.676 1315.77 130.788 1313.52 128.695C1313.2 128.401 1312.95 128.151 1313.11 127.896C1313.55 127.175 1315.1 128.997 1325.37 130.595C1336.14 132.271 1341.5 130.68 1340.39 131.761C1336.12 135.945 1325.99 133.077 1322 134.44Z" fill="#0C1A40"/>
</g>
<g opacity="0.25">
<path opacity="0.25" d="M1347.64 121.421C1351.82 121.507 1352.69 116.781 1353.31 117.038C1354.39 117.485 1351.91 124.931 1346.04 126.678C1342.29 127.797 1338.95 123.014 1340.34 122.127C1342.14 120.983 1345.55 121.379 1347.64 121.421Z" fill="#0C1A40"/>
</g>
<g opacity="0.25">
<path opacity="0.25" d="M1314.7 127.729C1309.17 127.073 1304.08 135.311 1298.37 136.213C1296.21 136.554 1290.97 133.631 1288.08 126.524C1287.86 125.973 1287.69 125.401 1287.5 124.836C1287.3 124.252 1288.58 124.745 1289.12 125.084C1295.68 129.16 1297.36 130.518 1305.66 125.745C1313.14 121.447 1319.29 119.698 1327.28 122.767C1331.85 124.524 1335.61 128.128 1345.2 128.856C1347.26 129.013 1352.8 128.77 1350.62 129.349C1333.01 134.021 1315.14 127.781 1314.7 127.729Z" fill="#0C1A40"/>
</g>
</g>
<path d="M1370.42 106.078C1367.98 104.773 1366.97 103.989 1366.09 103.296C1365.5 102.835 1364.94 102.398 1364.04 101.872C1363.54 101.578 1363.15 101.328 1362.77 101.093C1361.84 100.507 1361.04 100 1359.13 99.1193C1358.03 98.6141 1357.17 98.2651 1356.35 97.9891C1355.88 97.8308 1355.77 97.6725 1355.39 97.1486C1355.24 96.9314 1355.04 96.6597 1354.77 96.3137C1349.7 89.9234 1342.71 87.1314 1334.57 88.2355C1321.59 89.9976 1308.23 101.354 1302.09 115.851L1302.03 115.997C1301.76 116.617 1301.76 116.616 1301.33 116.563C1300.38 116.44 1299.32 116.115 1298.19 115.77C1295.56 114.964 1292.58 114.047 1289.37 115.115C1287.2 115.839 1286 117.889 1286 120.886C1286 123.754 1287.13 127.274 1289.01 130.302C1291.08 133.619 1293.76 135.957 1296.56 136.885C1298.79 137.628 1301.32 136.656 1304.09 134.001L1304.49 133.617C1306.34 131.834 1307.68 130.544 1311.75 128.784C1312.06 128.651 1312.26 128.696 1312.52 128.953C1313.03 129.462 1313.56 129.97 1314.1 130.461C1317.92 133.962 1324.22 138.631 1330.59 138.631C1333.21 138.631 1335.84 137.842 1338.31 135.859C1340.23 134.322 1340.99 133.239 1341.49 132.522C1341.89 131.947 1342.05 131.746 1342.41 131.696C1349.27 130.743 1356.39 129.382 1361.93 125.913C1365.72 123.543 1370.26 119.457 1370.42 113.452C1370.43 112.873 1370.6 112.418 1370.96 111.976C1371.75 110.997 1372.17 109.855 1372.19 108.58C1372.22 107.218 1371.26 106.528 1370.42 106.078ZM1361.63 112.721C1360.9 112.448 1360.36 112.137 1359.96 111.911C1359.48 111.637 1359.17 111.46 1358.87 111.539C1358.72 111.582 1358.61 111.687 1358.51 111.861C1358.24 112.36 1358.59 112.675 1358.96 112.917C1361.86 114.813 1365.43 115.291 1368.07 114.134C1368.11 114.12 1368.17 114.086 1368.25 114.043C1368.69 113.795 1368.9 113.724 1368.99 113.716C1369.04 114.834 1368.48 117.283 1367.06 119.323C1362.52 125.846 1353.78 128.513 1347.24 129.601C1339.55 130.882 1330.56 130.739 1322.6 129.21C1319.57 128.627 1317.65 128.056 1316.25 127.638C1313.49 126.819 1312.75 126.597 1309.75 128.158C1307.28 129.443 1305.24 130.861 1303.7 132.375C1301.56 134.477 1299.24 136.311 1296.75 135.492C1293.75 134.506 1291.43 131.555 1290.01 129.253C1287.88 125.797 1287.01 122.262 1287.55 119.3C1287.76 118.174 1288.31 117.331 1289.21 116.795C1290.09 116.263 1291.21 116.075 1292.34 116.075C1294.23 116.075 1296.17 116.599 1297.17 116.918C1299.02 117.507 1300.59 117.883 1302.1 118.102C1306.14 118.686 1307.02 117.16 1308.05 115.392C1308.22 115.092 1308.4 114.779 1308.6 114.463C1318.7 98.7677 1340.47 92.5122 1358.18 100.228C1361.68 101.753 1363.64 103.209 1365.54 104.618C1366.08 105.014 1366.61 105.405 1367.16 105.789C1367.83 106.256 1369.15 107.08 1370 107.447C1370.37 107.61 1370.61 107.9 1370.71 108.308C1370.93 109.183 1370.48 110.359 1369.91 111.069C1368.47 112.893 1365.17 114.048 1361.63 112.721ZM1353.45 97.0095L1352.43 96.7646C1351.84 96.6234 1351.25 96.4817 1350.65 96.3482C1347.7 95.6826 1344.64 95.3763 1341.52 95.4117C1337.52 95.4697 1333.49 96.1144 1329.56 97.3278C1325.75 98.504 1322.14 100.177 1318.83 102.3C1311.32 107.122 1308.14 112.397 1306.61 114.931C1306.2 115.605 1305.88 116.139 1305.69 116.276C1305.06 116.742 1304.18 116.942 1303.28 116.831C1303.24 116.827 1303.22 116.82 1303.21 116.82C1303.21 116.82 1303.2 116.82 1303.2 116.821C1303.2 116.814 1303.21 116.793 1303.22 116.756C1309.05 102.923 1322.15 91.5455 1334.38 89.7028C1341.94 88.5594 1348.53 91.0484 1353.43 96.8926L1353.5 96.9715C1353.52 96.9907 1353.54 97.0129 1353.56 97.0364C1353.52 97.027 1353.48 97.018 1353.45 97.0095ZM1315.07 128.783C1317.7 129.583 1323.15 131.249 1331.36 131.795C1335.76 132.088 1338.24 131.949 1339.43 131.881C1339.72 131.865 1340.01 131.845 1340.16 131.85C1340.11 131.908 1340.06 131.977 1340.01 132.04L1339.86 132.219C1337.47 135.209 1334.65 136.852 1331.49 137.101C1326.61 137.49 1320.74 134.582 1314.03 128.474C1314.3 128.547 1314.67 128.66 1315.07 128.783Z" fill="#0C1A40"/>
<path d="M1353 115.508C1350.29 114.289 1343.85 115.963 1340.2 119.658C1339.28 120.588 1338.92 121.886 1339.2 123.218C1339.58 125.017 1341.07 126.589 1343.17 127.422C1343.72 127.64 1344.3 127.747 1344.91 127.747C1346.09 127.747 1347.36 127.331 1348.67 126.508C1351.73 124.57 1354.2 120.829 1354.4 117.806C1354.47 116.747 1353.99 115.953 1353 115.508ZM1352.46 116.814C1352.81 116.978 1352.9 117.426 1352.92 117.772C1353 119.643 1351.15 123.394 1347.44 125.571C1345.04 126.976 1342.7 126.105 1341.45 124.618C1340.56 123.561 1340.09 121.983 1341.05 120.841C1343.16 118.342 1347.98 116.538 1350.88 116.538C1351.51 116.539 1352.06 116.626 1352.46 116.814Z" fill="#0C1A40"/>
<path d="M1354.46 103.758C1353.7 103.926 1353.06 104.474 1352.76 105.225C1352.47 105.944 1352.54 106.712 1352.96 107.33C1353.38 107.957 1354.17 108.338 1354.97 108.338C1355.15 108.338 1355.33 108.319 1355.51 108.279C1356.17 108.127 1356.78 107.665 1357.13 107.045C1357.45 106.503 1357.52 105.903 1357.35 105.357C1356.98 104.166 1355.73 103.479 1354.46 103.758Z" fill="#0C1A40"/>
<path d="M1349.65 52.4824C1346.58 52.955 1343.66 51.5745 1342.02 49.1662C1341.39 48.2435 1340.95 47.1557 1340.76 45.97C1340.1 41.7163 1343.02 37.7322 1347.27 37.0797C1348.81 36.8398 1350.32 37.072 1351.64 37.6651C1353.97 38.7077 1355.74 40.8761 1356.16 43.592C1356.82 47.8463 1353.91 51.8298 1349.65 52.4824Z" fill="#00D5FE"/>
<g opacity="0.75">
<g opacity="0.75">
<path opacity="0.75" d="M1344.24 46.3888C1342.97 46.5451 1342.94 44.736 1342.98 43.8952C1343.24 38.8921 1349.65 37.7086 1349.66 39.7285C1349.66 40.2952 1348.7 40.6655 1348.29 40.8619C1344.76 42.5533 1345.87 46.1874 1344.24 46.3888Z" fill="white"/>
</g>
</g>
<g opacity="0.25">
<path opacity="0.25" d="M1349.65 52.4824C1346.58 52.955 1343.66 51.5745 1342.02 49.1662C1346.27 46.1125 1350.16 48.5285 1352.11 46.0074C1353.78 43.8545 1352.14 40.5004 1351.64 37.6646C1353.97 38.7072 1355.74 40.8756 1356.16 43.5914C1356.82 47.8463 1353.91 51.8298 1349.65 52.4824Z" fill="#312BBF"/>
</g>
<path d="M1348.47 36.9848C1352.25 36.9848 1355.57 39.7386 1356.17 43.5895C1356.82 47.8438 1353.91 51.8262 1349.66 52.4849C1349.25 52.5476 1348.85 52.5773 1348.45 52.5773C1344.68 52.5773 1341.36 49.8235 1340.76 45.9725C1340.1 41.7183 1343.02 37.7358 1347.27 37.0778C1347.68 37.015 1348.08 36.9848 1348.47 36.9848ZM1348.47 35.3176C1347.99 35.3176 1347.5 35.3556 1347.02 35.4299C1344.52 35.8161 1342.32 37.152 1340.83 39.1911C1339.34 41.2308 1338.73 43.7293 1339.11 46.2273C1339.83 50.8722 1343.76 54.2439 1348.45 54.2439C1348.94 54.2439 1349.43 54.2059 1349.91 54.1316C1355.07 53.3344 1358.61 48.4909 1357.82 43.3348C1357.1 38.6893 1353.17 35.3176 1348.47 35.3176Z" fill="#2E3C63"/>
<path d="M1380.24 88.5844C1376.19 89.2083 1372.34 87.386 1370.17 84.2069C1369.33 82.9887 1368.75 81.5526 1368.5 79.9878C1367.63 74.3718 1371.48 69.1128 1377.1 68.2512C1379.13 67.9343 1381.12 68.2413 1382.86 69.0237C1385.94 70.4004 1388.28 73.2626 1388.84 76.8483C1389.71 82.4632 1385.86 87.7227 1380.24 88.5844Z" fill="#00D5FE"/>
<g opacity="0.75">
<g opacity="0.75">
<path opacity="0.75" d="M1373.1 80.5392C1371.42 80.7461 1371.38 78.3576 1371.43 77.2478C1371.78 70.6425 1380.23 69.0805 1380.25 71.7468C1380.26 72.4951 1378.98 72.9837 1378.44 73.2434C1373.78 75.4762 1375.25 80.274 1373.1 80.5392Z" fill="white"/>
</g>
</g>
<g opacity="0.25">
<path opacity="0.25" d="M1380.24 88.5844C1376.19 89.2083 1372.34 87.386 1370.17 84.2069C1375.77 80.176 1380.91 83.3651 1383.49 80.0368C1385.69 77.1944 1383.52 72.7668 1382.86 69.0232C1385.94 70.3998 1388.28 73.262 1388.84 76.8478C1389.71 82.4633 1385.86 87.7228 1380.24 88.5844Z" fill="#312BBF"/>
</g>
<path d="M1378.68 68.1253C1383.67 68.1253 1388.05 71.7612 1388.84 76.8446C1389.71 82.4612 1385.86 87.719 1380.24 88.5872C1379.71 88.6698 1379.18 88.7094 1378.66 88.7094C1373.67 88.7094 1369.29 85.0736 1368.5 79.9902C1367.63 74.3736 1371.48 69.1163 1377.1 68.2475C1377.63 68.165 1378.16 68.1253 1378.68 68.1253ZM1378.68 66.4587C1378.07 66.4587 1377.45 66.5066 1376.84 66.6007C1373.69 67.0887 1370.91 68.7768 1369.02 71.3545C1367.14 73.9317 1366.37 77.0894 1366.85 80.246C1367.76 86.1162 1372.73 90.3771 1378.66 90.3771C1379.27 90.3771 1379.89 90.3292 1380.5 90.2351C1383.65 89.7471 1386.43 88.0585 1388.32 85.4818C1390.21 82.9046 1390.98 79.747 1390.49 76.5904C1389.58 70.719 1384.62 66.4587 1378.68 66.4587Z" fill="#2E3C63"/>
<path d="M1383.31 37.3546C1379.61 37.9246 1376.1 36.2596 1374.11 33.3556C1373.35 32.2431 1372.82 30.9308 1372.59 29.5014C1371.8 24.3717 1375.32 19.5678 1380.45 18.781C1382.3 18.4916 1384.12 18.7722 1385.71 19.4869C1388.53 20.7447 1390.66 23.3588 1391.17 26.6342C1391.96 31.7638 1388.45 36.5678 1383.31 37.3546Z" fill="#00D5FE"/>
<g opacity="0.75">
<g opacity="0.75">
<path opacity="0.75" d="M1376.79 30.0065C1375.26 30.1953 1375.22 28.0137 1375.27 26.9996C1375.58 20.9665 1383.31 19.5393 1383.32 21.9751C1383.33 22.6584 1382.16 23.1047 1381.67 23.3418C1377.41 25.3815 1378.75 29.7639 1376.79 30.0065Z" fill="white"/>
</g>
</g>
<g opacity="0.25">
<path opacity="0.25" d="M1383.31 37.3547C1379.61 37.9247 1376.1 36.2598 1374.11 33.3557C1379.23 29.6737 1383.93 32.5866 1386.28 29.5472C1388.29 26.9507 1386.31 22.9066 1385.71 19.4871C1388.53 20.7448 1390.66 23.3589 1391.17 26.6343C1391.96 31.764 1388.45 36.5679 1383.31 37.3547Z" fill="#312BBF"/>
</g>
<path d="M1381.89 18.6671C1386.45 18.6671 1390.45 21.9882 1391.17 26.6315C1391.97 31.7617 1388.45 36.564 1383.32 37.3579C1382.83 37.4333 1382.35 37.4696 1381.87 37.4696C1377.31 37.4696 1373.31 34.1485 1372.59 29.5053C1371.8 24.3751 1375.31 19.5728 1380.45 18.7794C1380.93 18.7035 1381.42 18.6671 1381.89 18.6671ZM1381.89 17C1381.33 17 1380.75 17.044 1380.19 17.1315C1374.16 18.0641 1370.01 23.7291 1370.95 29.7595C1371.79 35.1928 1376.38 39.1362 1381.87 39.1362C1382.44 39.1362 1383.01 39.0922 1383.57 39.0047C1389.6 38.0715 1393.75 32.4065 1392.82 26.3762C1391.98 20.9434 1387.38 17 1381.89 17Z" fill="#2E3C63"/>
</svg>
