<svg width="1675" height="477" viewBox="0 0 1675 477" fill="none" xmlns="http://www.w3.org/2000/svg">
<path fill-rule="evenodd" clip-rule="evenodd" d="M1627.05 14.2464C1626.86 13.8445 1626.65 13.4476 1626.47 13.0431C1625.88 11.8386 1625.28 10.6463 1624.69 9.44329C1624.53 9.10861 1624.34 8.90011 1623.87 9.11544C1623.55 9.26638 1623.61 9.58466 1623.75 9.86042C1624.31 11.0119 1624.91 12.1494 1625.44 13.3195C1625.69 13.8567 1625.96 14.3812 1626.22 14.9115C1626.54 14.8716 1626.86 14.7879 1627.17 14.6841C1627.22 14.5138 1627.12 14.3824 1627.05 14.2464Z" fill="#7BEFE5"/>
<path fill-rule="evenodd" clip-rule="evenodd" d="M1654.78 7.97021C1653.64 8.55893 1635.16 13.2385 1621.05 16.7679V16.7641L1614.79 18.3295C1609.03 19.7647 1605 20.7586 1605 20.7586L1605.34 22.0134C1616.63 65.2048 1620.07 67.3842 1620.07 67.3842C1633.37 63.9013 1669.47 54.4992 1669.47 54.4992C1663.77 43.9813 1654.78 7.97021 1654.78 7.97021Z" fill="#FFA3AB"/>
<path fill-rule="evenodd" clip-rule="evenodd" d="M1633.95 13.4677C1621.59 18.3795 1607.73 23.7859 1606.89 24.1159C1607.04 24.7124 1607.32 25.254 1607.47 25.8349C1617.65 51.8298 1622.81 62.0406 1625.23 66.032C1631.71 64.3077 1640.57 62.0725 1648.72 59.9055C1656.08 56.9237 1663.45 53.8292 1668.2 51.9028C1663.47 41.1052 1657.21 16.8429 1655.43 9.75649C1655.16 9.05704 1654.91 8.42649 1654.7 7.87524C1652.97 8.50675 1643.84 10.9179 1633.95 13.4677Z" fill="#FC6084"/>
<path fill-rule="evenodd" clip-rule="evenodd" d="M1606.89 22.3209C1606.89 22.3209 1652.96 4.69849 1654.68 3.51697C1654.68 3.51697 1668.04 38.1459 1675 47.8807C1675 47.8807 1640.33 61.6593 1627.56 66.7539C1627.56 66.7539 1623.41 63.792 1606.89 22.3209Z" fill="#A089E4"/>
<path d="M1643.16 36.2491L1641.97 38.2726H1619.56L1617 36.2491L1617.58 38.2726L1636.6 56.4298L1643.74 38.2726L1643.16 36.2491Z" fill="#074784"/>
<path fill-rule="evenodd" clip-rule="evenodd" d="M1660.15 31.7706L1659.67 32.656L1649.81 30.2454L1645.27 48.7967L1644 49.1075L1644.9 50.3304L1656.15 53.0784L1661.05 32.9929L1660.15 31.7706Z" fill="#074784"/>
<path fill-rule="evenodd" clip-rule="evenodd" d="M1631.47 26.3134C1631.51 25.264 1631.01 24.2788 1630.51 23.3866C1630.01 22.4781 1629.52 21.5821 1629.07 20.6418C1628.16 18.725 1627.21 16.8269 1626.3 14.9115C1625.95 15.0459 1625.6 15.1795 1625.26 15.3121C1625.87 16.53 1626.47 17.7517 1627.09 18.9675C1627.73 20.2572 1628.37 21.5544 1629.02 22.8431C1629.62 24.0283 1631.05 25.8974 1629.88 27.1798C1629.21 27.9208 1627.82 27.9201 1626.99 27.4064C1626.55 27.1284 1626.01 26.6159 1625.78 26.1388C1625.33 25.2376 1624.88 24.3454 1624.42 23.4466C1623.32 21.2665 1622.16 19.0561 1621.05 16.8801C1620.75 16.9955 1620.42 17.1259 1620.12 17.2391C1621.48 19.7814 1622.94 22.3483 1624.16 24.949C1624.73 26.1573 1625.2 27.511 1626.29 28.3633C1627.31 29.1657 1628.72 29.0883 1629.87 28.5864C1630.75 28.2022 1631.44 27.2725 1631.47 26.3134Z" fill="#074784"/>
<path d="M1646.57 24.9324C1646.57 28.7931 1643.45 31.9229 1639.58 31.9229C1635.72 31.9229 1632.59 28.7931 1632.59 24.9324C1632.59 21.0718 1635.72 17.942 1639.58 17.942C1643.45 17.942 1646.57 21.0718 1646.57 24.9324Z" fill="#074784"/>
<path fill-rule="evenodd" clip-rule="evenodd" d="M1629.4 23.2917C1628.91 22.4066 1628.43 21.5319 1628 20.6148C1626.92 18.3458 1625.78 16.1065 1624.72 13.8272C1624.43 13.1896 1624.12 12.5578 1623.79 11.9355C1623.26 10.9272 1622.87 9.83464 1621.99 9.06559C1621.27 8.43327 1620.33 7.93438 1619.34 7.97772C1618.64 8.00958 1617.82 8.27591 1617.22 8.6285C1615.63 9.55136 1614.92 11.281 1615.3 13.0626C1615.6 14.4817 1616.57 15.7771 1617.23 17.0512C1617.26 17.0967 1617.63 17.8524 1617.82 18.1238L1618.75 17.7675C1618.31 16.9775 1617.89 16.178 1617.45 15.3909C1616.86 14.3402 1616.25 13.286 1616.28 12.0396C1616.3 10.9736 1616.78 10.0293 1617.79 9.5694C1619.69 8.70274 1621.44 9.87483 1622.34 11.5079C1622.92 12.5646 1623.41 13.6881 1623.96 14.7662C1624.66 16.1688 1625.35 17.5789 1626.06 18.9813C1626.69 20.2395 1627.31 21.5048 1627.95 22.7621C1628.53 23.9183 1629.93 25.742 1628.79 26.9934C1628.13 27.7162 1626.77 27.7153 1625.97 27.2139C1625.54 26.9431 1625.01 26.4434 1624.78 25.9778C1624.35 25.0981 1623.91 24.228 1623.46 23.3511C1622.33 21.1093 1621.16 18.8876 1620.02 16.6492C1619.75 16.1133 1619.47 15.5786 1619.2 15.0444C1619.2 15.0444 1618.51 14.6894 1618.34 15.4572C1619.96 18.5697 1621.72 21.6433 1623.21 24.8167C1623.76 25.9953 1624.22 27.3162 1625.28 28.148C1626.28 28.9301 1627.65 28.855 1628.77 28.3655C1629.64 27.9908 1630.31 27.0839 1630.34 26.1476C1630.38 25.1243 1629.89 24.1628 1629.4 23.2917Z" fill="#7BEFE5"/>
<path fill-rule="evenodd" clip-rule="evenodd" d="M1657.91 27.3068C1657.91 27.8527 1657.47 28.2957 1656.92 28.2957C1656.37 28.2957 1655.93 27.8527 1655.93 27.3068C1655.93 26.76 1656.37 26.3173 1656.92 26.3173C1657.47 26.3173 1657.91 26.76 1657.91 27.3068Z" fill="#7BEFE5"/>
<path fill-rule="evenodd" clip-rule="evenodd" d="M1612.52 25.1056C1612.52 25.6522 1612.08 26.0952 1611.54 26.0952C1610.99 26.0952 1610.55 25.6522 1610.55 25.1056C1610.55 24.5593 1610.99 24.1167 1611.54 24.1167C1612.08 24.1167 1612.52 24.5594 1612.52 25.1056Z" fill="#7BEFE5"/>
<path fill-rule="evenodd" clip-rule="evenodd" d="M1642.92 54.406C1642.92 54.9523 1642.48 55.3948 1641.93 55.3948C1641.39 55.3948 1640.94 54.9521 1640.94 54.406C1640.94 53.8594 1641.39 53.4164 1641.93 53.4164C1642.48 53.4164 1642.92 53.8595 1642.92 54.406Z" fill="white"/>
<path fill-rule="evenodd" clip-rule="evenodd" d="M1622.58 46.5169C1622.58 46.8825 1622.28 47.1789 1621.92 47.1789C1621.55 47.1789 1621.26 46.8825 1621.26 46.5169C1621.26 46.1514 1621.55 45.8552 1621.92 45.8552C1622.28 45.8552 1622.58 46.1512 1622.58 46.5169Z" fill="#7BEEE4"/>
<path fill-rule="evenodd" clip-rule="evenodd" d="M1644.56 33.6368C1644.56 33.9463 1644.31 34.197 1644 34.197C1643.69 34.197 1643.44 33.9461 1643.44 33.6368C1643.44 33.3279 1643.69 33.077 1644 33.077C1644.31 33.077 1644.56 33.3279 1644.56 33.6368Z" fill="white"/>
<path fill-rule="evenodd" clip-rule="evenodd" d="M1632.59 17.4153C1632.59 17.7244 1632.34 17.975 1632.03 17.975C1631.73 17.975 1631.47 17.7246 1631.47 17.4153C1631.47 17.1059 1631.73 16.8556 1632.03 16.8556C1632.34 16.8557 1632.59 17.1059 1632.59 17.4153Z" fill="#074784"/>
<path fill-rule="evenodd" clip-rule="evenodd" d="M1667.38 45.6428C1667.38 45.9519 1667.13 46.2025 1666.82 46.2025C1666.52 46.2025 1666.26 45.952 1666.26 45.6428C1666.26 45.3332 1666.52 45.0828 1666.82 45.0828C1667.13 45.0828 1667.38 45.3332 1667.38 45.6428Z" fill="white"/>
<path fill-rule="evenodd" clip-rule="evenodd" d="M1644.73 12.5198C1644.73 13.066 1644.28 13.5087 1643.74 13.5087C1643.19 13.5087 1642.75 13.066 1642.75 12.5198C1642.75 11.9732 1643.19 11.5303 1643.74 11.5303C1644.28 11.5303 1644.73 11.9732 1644.73 12.5198Z" fill="white"/>
<path fill-rule="evenodd" clip-rule="evenodd" d="M1625.2 31.8373C1625.2 32.3841 1624.75 32.8268 1624.21 32.8268C1623.66 32.8268 1623.22 32.3841 1623.22 31.8373C1623.22 31.2914 1623.66 30.8484 1624.21 30.8484C1624.75 30.8484 1625.2 31.2914 1625.2 31.8373Z" fill="#074784"/>
<path fill-rule="evenodd" clip-rule="evenodd" d="M1629.73 56.0906C1629.73 56.6372 1629.29 57.0802 1628.74 57.0802C1628.2 57.0802 1627.75 56.6372 1627.75 56.0906C1627.75 55.544 1628.2 55.1013 1628.74 55.1013C1629.29 55.1013 1629.73 55.5442 1629.73 56.0906Z" fill="#074784"/>
<path fill-rule="evenodd" clip-rule="evenodd" d="M1649.61 8.79565C1650.54 11.5278 1651.88 12.393 1653.7 12.0576C1651.97 12.7948 1651.38 14.365 1652.12 17.1427C1651.17 14.496 1649.92 13.3629 1648.04 13.8171C1649.71 13.0316 1650.34 11.5412 1649.61 8.79565Z" fill="#074784"/>
<path fill-rule="evenodd" clip-rule="evenodd" d="M1616.66 24.2152C1617.57 27.051 1618.9 27.9766 1620.74 27.6799C1618.99 28.3925 1618.37 29.9917 1619.09 32.8692C1618.17 30.1208 1616.92 28.9222 1615.01 29.3389C1616.71 28.576 1617.36 27.0598 1616.66 24.2152Z" fill="white"/>
<path fill-rule="evenodd" clip-rule="evenodd" d="M1663.57 38.6664C1663.63 41.0894 1664.49 42.1194 1666.03 42.3077C1664.46 42.4632 1663.59 43.5719 1663.49 45.984C1663.39 43.6259 1662.68 42.4037 1661.05 42.293C1662.59 42.0863 1663.47 41.0502 1663.57 38.6664Z" fill="white"/>
<path d="M1646.79 23.4983C1646.79 27.3589 1643.66 30.4883 1639.8 30.4883C1635.94 30.4883 1632.81 27.3589 1632.81 23.4983C1632.81 19.6376 1635.94 16.5076 1639.8 16.5076C1643.66 16.5076 1646.79 19.6376 1646.79 23.4983Z" fill="#7BEFE5"/>
<path d="M1637.84 29.3266C1637.84 29.3266 1638.06 29.3173 1638.45 29.3015C1638.64 29.2891 1638.87 29.2753 1639.14 29.2467C1639.27 29.2367 1639.41 29.2171 1639.56 29.1937C1639.63 29.1834 1639.7 29.1728 1639.78 29.1618C1639.86 29.1481 1639.93 29.1331 1640.01 29.1185C1640.33 29.063 1640.66 28.9678 1641 28.8642C1641.34 28.7469 1641.69 28.6084 1642.03 28.4305C1642.36 28.2489 1642.69 28.0346 1642.99 27.7863C1643.29 27.539 1643.56 27.2504 1643.8 26.9386C1644.04 26.6279 1644.24 26.2932 1644.41 25.9435C1644.57 25.5928 1644.71 25.2353 1644.81 24.8768C1644.9 24.5178 1644.98 24.1634 1645.03 23.8205C1645.08 23.4788 1645.11 23.15 1645.12 22.8443C1645.13 22.5386 1645.14 22.2559 1645.13 22.0045C1645.13 21.7523 1645.11 21.5325 1645.11 21.3493C1645.08 20.9855 1645.07 20.7734 1645.07 20.7734C1645.07 20.7734 1645.09 20.8228 1645.13 20.9144C1645.16 21.0074 1645.23 21.1427 1645.28 21.3187C1645.34 21.4965 1645.42 21.7105 1645.47 21.9644C1645.54 22.2158 1645.59 22.5051 1645.63 22.8242C1645.67 23.143 1645.71 23.4925 1645.7 23.8653C1645.7 24.2384 1645.66 24.6325 1645.58 25.0384C1645.5 25.4431 1645.38 25.8573 1645.21 26.2641C1645.04 26.6722 1644.8 27.0652 1644.52 27.4315C1644.24 27.7937 1643.92 28.1322 1643.55 28.4082C1643.18 28.6884 1642.79 28.9161 1642.39 29.094C1641.98 29.2697 1641.57 29.3863 1641.18 29.4722C1640.79 29.5455 1640.42 29.5898 1640.07 29.5967C1639.9 29.6033 1639.74 29.6077 1639.58 29.5973C1639.42 29.5923 1639.28 29.5836 1639.14 29.5671C1638.87 29.5476 1638.63 29.5006 1638.43 29.4675C1638.24 29.4351 1638.09 29.3889 1637.99 29.3665C1637.89 29.3402 1637.84 29.3266 1637.84 29.3266Z" fill="#29ADFC"/>
<path d="M1617 36.2491L1636.02 54.4059L1643.16 36.2491H1617Z" fill="#F18545"/>
<path d="M1648.91 29.0254L1644 49.1096L1655.25 51.8582L1660.15 31.774L1648.91 29.0254Z" fill="#F9D555"/>
<path d="M1655.38 45.6427C1655.38 45.6427 1655.39 45.4305 1655.44 45.0647C1655.48 44.6981 1655.55 44.1771 1655.65 43.5563C1655.71 43.2462 1655.77 42.9111 1655.83 42.5586C1655.9 42.2055 1655.97 41.8339 1656.05 41.4511C1656.13 41.068 1656.21 40.6737 1656.3 40.2749C1656.39 39.8755 1656.49 39.471 1656.58 39.0638C1656.67 38.6588 1656.77 38.2529 1656.87 37.8559C1656.97 37.4585 1657.07 37.0684 1657.17 36.6916C1657.28 36.3136 1657.38 35.9488 1657.47 35.6028C1657.56 35.2567 1657.66 34.9308 1657.75 34.63C1657.94 34.0298 1658.1 33.5319 1658.23 33.185C1658.36 32.8375 1658.44 32.6406 1658.44 32.6406C1658.44 32.6406 1658.43 32.8531 1658.41 33.2213C1658.39 33.5897 1658.35 34.1142 1658.28 34.7399C1658.24 35.0529 1658.2 35.3913 1658.15 35.7482C1658.1 36.1045 1658.05 36.482 1657.98 36.8676C1657.91 37.2538 1657.83 37.6525 1657.75 38.0562C1657.67 38.4599 1657.57 38.8686 1657.48 39.2776C1657.43 39.4811 1657.39 39.6848 1657.34 39.8878C1657.28 40.0893 1657.23 40.2899 1657.18 40.4892C1657.07 40.8874 1656.96 41.2776 1656.84 41.6538C1656.73 42.0306 1656.62 42.3932 1656.51 42.7357C1656.39 43.0766 1656.28 43.397 1656.17 43.6928C1655.95 44.283 1655.76 44.771 1655.61 45.111C1655.47 45.4512 1655.38 45.6427 1655.38 45.6427Z" fill="#F18545"/>
<path d="M1622.45 38.8442C1622.45 38.8442 1622.62 38.9384 1622.89 39.1188C1623.03 39.2102 1623.19 39.3181 1623.38 39.4513C1623.56 39.582 1623.77 39.7304 1623.99 39.9054C1624.43 40.2498 1624.94 40.6682 1625.45 41.1352C1625.96 41.6025 1626.49 42.1124 1627.01 42.6371C1627.26 42.8992 1627.52 43.1587 1627.77 43.4229C1628.01 43.686 1628.26 43.9445 1628.49 44.1951C1628.72 44.4497 1628.95 44.6965 1629.16 44.9299C1629.37 45.162 1629.57 45.3857 1629.75 45.5957C1629.93 45.8088 1630.09 46.0004 1630.24 46.1685C1630.39 46.3382 1630.52 46.4932 1630.62 46.6197C1630.83 46.874 1630.94 47.03 1630.94 47.03C1630.94 47.03 1630.77 46.9495 1630.48 46.7891C1630.34 46.7083 1630.16 46.6116 1629.97 46.493C1629.87 46.4328 1629.76 46.3688 1629.65 46.3017C1629.55 46.2294 1629.44 46.1532 1629.32 46.0734C1629.09 45.9118 1628.85 45.7331 1628.59 45.5394C1628.34 45.3459 1628.08 45.1263 1627.81 44.9005C1627.55 44.6734 1627.27 44.4375 1627.01 44.1835C1626.75 43.9343 1626.48 43.6729 1626.22 43.4123C1625.96 43.1458 1625.71 42.8813 1625.46 42.613C1625.21 42.346 1624.98 42.0802 1624.75 41.8187C1624.29 41.294 1623.89 40.7997 1623.55 40.3599C1623.21 39.9179 1622.92 39.5468 1622.74 39.2757C1622.55 39.0071 1622.45 38.8442 1622.45 38.8442Z" fill="#FFA3AB"/>
<path d="M1624.96 57.3904C1624.96 57.3904 1625.03 57.4731 1625.15 57.6243C1625.26 57.7747 1625.42 57.9937 1625.59 58.2622C1625.68 58.397 1625.77 58.5439 1625.86 58.7012C1625.95 58.8613 1626.06 59.0176 1626.16 59.1873C1626.36 59.5236 1626.56 59.888 1626.75 60.2586C1626.85 60.4414 1626.96 60.622 1627.05 60.8045C1627.15 60.9851 1627.24 61.1667 1627.33 61.3431C1627.42 61.5183 1627.49 61.6969 1627.57 61.8553C1627.66 62.016 1627.73 62.1701 1627.8 62.3143C1627.93 62.6029 1628.03 62.8512 1628.1 63.0296C1628.17 63.2071 1628.2 63.3141 1628.2 63.3141C1628.2 63.3141 1628.11 63.2443 1627.98 63.1126C1627.84 62.9816 1627.65 62.7882 1627.44 62.5467C1627.33 62.4257 1627.22 62.2922 1627.1 62.1493C1626.98 62.0071 1626.88 61.8439 1626.76 61.6788C1626.54 61.345 1626.31 60.9818 1626.1 60.6107C1625.91 60.2281 1625.73 59.8392 1625.57 59.4701C1625.49 59.2852 1625.41 59.1063 1625.36 58.9328C1625.3 58.7593 1625.25 58.5941 1625.2 58.4405C1625.11 58.1324 1625.05 57.8708 1625.01 57.6849C1624.97 57.4999 1624.96 57.3904 1624.96 57.3904Z" fill="white"/>
<path d="M1660.04 21.9706C1660.04 21.9706 1660.17 22.1222 1660.36 22.3989C1660.56 22.6747 1660.83 23.0765 1661.13 23.5688C1661.27 23.8156 1661.43 24.0851 1661.59 24.3731C1661.74 24.6664 1661.93 24.9528 1662.09 25.2635C1662.44 25.8806 1662.78 26.5482 1663.11 27.2277C1663.28 27.5628 1663.46 27.8935 1663.62 28.2272C1663.79 28.5592 1663.94 28.8917 1664.09 29.2149C1664.24 29.5356 1664.36 29.8628 1664.51 30.1539C1664.65 30.4477 1664.78 30.7304 1664.89 30.9943C1665.12 31.5234 1665.29 31.9788 1665.4 32.3052C1665.52 32.6308 1665.57 32.8267 1665.57 32.8267C1665.57 32.8267 1665.43 32.6988 1665.2 32.4573C1664.96 32.2171 1664.64 31.863 1664.28 31.4206C1664.09 31.1981 1663.9 30.9538 1663.7 30.6915C1663.5 30.4306 1663.32 30.1324 1663.13 29.8292C1662.75 29.218 1662.36 28.5522 1662 27.8712C1661.67 27.1705 1661.35 26.458 1661.09 25.7813C1660.95 25.4426 1660.82 25.1147 1660.73 24.7964C1660.63 24.4788 1660.54 24.1763 1660.46 23.8945C1660.31 23.3298 1660.2 22.8509 1660.14 22.5102C1660.07 22.1711 1660.04 21.9706 1660.04 21.9706Z" fill="white"/>
<path fill-rule="evenodd" clip-rule="evenodd" d="M1651.36 20.1686C1651.69 20.4587 1652.01 20.7485 1652.34 21.0387C1652.42 21.1129 1652.5 21.1878 1652.58 21.2626C1652.81 21.4704 1653.05 21.6781 1653.28 21.8859C1653.28 21.9183 1653.29 21.9502 1653.29 21.983C1652.47 22.882 1651.66 23.7852 1650.84 24.6781C1650.69 24.8366 1650.5 24.952 1650.33 25.0874C1650.08 24.884 1649.84 24.6807 1649.59 24.4775C1650.18 23.0412 1650.77 21.6048 1651.36 20.1686Z" fill="#E16B56"/>
<path fill-rule="evenodd" clip-rule="evenodd" d="M1650.33 25.0875C1650.5 24.9522 1650.69 24.8368 1650.84 24.6782C1651.66 23.7853 1652.47 22.8821 1653.29 21.983C1653.44 22.085 1653.59 22.1865 1653.73 22.289C1653.82 22.3583 1653.9 22.4278 1653.99 22.4974C1654.32 22.7882 1654.64 23.0783 1654.97 23.369C1653.6 24.1234 1652.23 24.8776 1650.87 25.6321C1650.69 25.4811 1650.52 25.3307 1650.34 25.1797C1650.34 25.1493 1650.33 25.1184 1650.33 25.0875Z" fill="#B25746"/>
<path fill-rule="evenodd" clip-rule="evenodd" d="M1666.62 4.85547C1666.74 4.98303 1666.86 5.11059 1666.98 5.23924C1662.41 10.3747 1657.84 15.5112 1653.27 20.6427C1653.07 20.8734 1652.81 21.0572 1652.58 21.2628C1652.5 21.1879 1652.42 21.1131 1652.34 21.0389C1652.55 20.7762 1652.74 20.5017 1652.96 20.2523C1657.44 15.2067 1661.93 10.1634 1666.41 5.11879C1666.48 5.03512 1666.55 4.94338 1666.62 4.85547Z" fill="#074784"/>
<path fill-rule="evenodd" clip-rule="evenodd" d="M1667.95 6.12012C1668.09 6.22375 1668.23 6.32697 1668.37 6.4302C1665.84 9.26725 1663.31 12.1031 1660.78 14.9418C1658.69 17.2918 1656.6 19.6467 1654.51 21.9958C1654.35 22.1754 1654.16 22.3311 1653.99 22.4974C1653.9 22.4278 1653.82 22.3582 1653.73 22.289C1653.91 22.0325 1654.07 21.7571 1654.27 21.5256C1658.83 16.3878 1663.39 11.254 1667.95 6.12012Z" fill="#074784"/>
<path fill-rule="evenodd" clip-rule="evenodd" d="M1654.51 21.9959C1654.35 22.1755 1654.16 22.3313 1653.99 22.4975C1654.32 22.7883 1654.64 23.0784 1654.97 23.3691C1655 23.3491 1655.04 23.3348 1655.06 23.3076C1659.82 17.9619 1664.57 12.6146 1669.32 7.26689C1669.33 7.25377 1669.33 7.23326 1669.34 7.21631C1669.02 6.95395 1668.7 6.69186 1668.37 6.43018C1665.84 9.26723 1663.31 12.103 1660.78 14.9417C1658.69 17.2919 1656.6 19.6466 1654.51 21.9959Z" fill="#F9D455"/>
<path fill-rule="evenodd" clip-rule="evenodd" d="M1652.58 21.2626C1652.81 21.4704 1653.05 21.6781 1653.28 21.8859C1653.28 21.9183 1653.29 21.9501 1653.29 21.983C1653.44 22.0849 1653.59 22.1864 1653.73 22.2889C1653.91 22.0325 1654.07 21.757 1654.27 21.5255C1658.83 16.3876 1663.39 11.2538 1667.95 6.12058C1667.86 6.01831 1667.76 5.91536 1667.67 5.81364C1667.65 5.74843 1667.62 5.68362 1667.6 5.61895C1667.39 5.49235 1667.18 5.36507 1666.98 5.23901C1662.41 10.3744 1657.84 15.511 1653.27 20.6424C1653.07 20.8732 1652.81 21.057 1652.58 21.2626Z" fill="#F9D455"/>
<path fill-rule="evenodd" clip-rule="evenodd" d="M1665.48 4.23703C1660.85 9.44314 1656.22 14.6501 1651.59 19.8571C1651.51 19.9542 1651.44 20.0645 1651.36 20.1685C1651.69 20.4586 1652.01 20.7484 1652.34 21.0385C1652.55 20.7759 1652.74 20.5014 1652.96 20.252C1657.44 15.2064 1661.93 10.1631 1666.41 5.11845C1666.48 5.03492 1666.55 4.94318 1666.62 4.85513C1666.31 4.56994 1666.01 4.28542 1665.71 4.00037C1665.63 4.07912 1665.55 4.15376 1665.48 4.23703Z" fill="#F9D455"/>
<path fill-rule="evenodd" clip-rule="evenodd" d="M1666.71 2.90117C1666.3 3.19006 1665.99 3.62865 1665.68 4.00299C1665.68 4.00887 1665.57 4.13314 1665.57 4.13656C1665.57 4.13684 1669.22 7.38049 1669.22 7.38049C1669.44 7.1359 1669.66 6.89008 1669.88 6.64795C1670.12 6.38682 1670.37 6.11516 1670.47 5.7657C1670.55 5.46342 1670.53 5.12463 1670.4 4.83793C1670.33 4.68002 1670.22 4.51227 1670.1 4.38813C1669.6 3.87215 1669.04 3.40047 1668.48 2.94711C1668.07 2.61857 1667.47 2.50852 1666.99 2.73588C1666.89 2.78209 1666.79 2.8376 1666.71 2.90117Z" fill="#FC6084"/>
<path fill-rule="evenodd" clip-rule="evenodd" d="M1650.33 25.0874L1649.59 24.4775C1649.27 25.2441 1648.95 26.0115 1648.62 26.7784C1648.62 26.7784 1648.61 26.91 1648.75 26.858C1649 26.7044 1649.25 26.552 1649.5 26.3982C1649.96 26.1433 1650.41 25.8874 1650.87 25.6323C1650.69 25.4812 1650.5 25.2381 1650.33 25.0874Z" fill="#074784"/>
<path fill-rule="evenodd" clip-rule="evenodd" d="M1650.87 25.6321L1649.59 24.4775C1649.59 24.4775 1650.52 21.9452 1651.36 20.1686L1654.97 23.369C1654.97 23.369 1652.95 24.5727 1650.87 25.6321Z" fill="#FFA4AC"/>
<g clip-path="url(#clip0_1210_40835)">
<path fill-rule="evenodd" clip-rule="evenodd" d="M46.0011 407.631C45.4075 407.522 44.8149 407.434 44.224 407.363C58.2292 410.854 67.335 424.351 64.7629 438.328C62.4766 450.75 51.0207 460.273 38.7038 461.132C37.1624 461.24 36.7755 461.676 35.1817 461.485C50.173 464.243 65.6177 453.532 68.2958 438.978C70.974 424.425 60.9923 410.39 46.0011 407.631Z" fill="#F9D555"/>
<path fill-rule="evenodd" clip-rule="evenodd" d="M41.3544 409.97C41.9933 407.792 44.5486 403.558 46.8913 405.494C48.1691 406.461 47.9561 410.575 47.6367 412.147" fill="#F9D555"/>
<path fill-rule="evenodd" clip-rule="evenodd" d="M42.1883 408.028C41.8085 408.718 41.518 409.411 41.3544 409.97L47.6366 412.148C47.7544 411.567 47.8576 410.641 47.8769 409.655C46.0793 408.905 44.1735 408.354 42.1883 408.028Z" fill="#F18545"/>
<path fill-rule="evenodd" clip-rule="evenodd" d="M45.2159 465.169C45.0016 465.091 44.7951 465.017 44.5984 464.945C43.0382 464.374 41.2732 463.61 40.1002 462.403C38.6719 460.933 39.7595 457.771 38.5133 457.776H36.0429C34.7961 457.771 35.8841 460.933 34.4557 462.403C32.7843 464.053 30.4275 464.685 28.3167 465.601C25.2113 466.949 19.4185 469.356 20.289 473.65C20.8437 476.387 29.9569 474.115 31.6194 474.115C33.4668 474.115 35.3921 474.284 37.2781 474.393C39.1641 474.284 41.0892 474.115 42.9369 474.115C44.5994 474.115 53.7122 476.387 54.2672 473.65C55.236 468.873 48.9919 466.54 45.2159 465.169Z" fill="#F9D555"/>
<path fill-rule="evenodd" clip-rule="evenodd" d="M37.4649 461.684C38.176 461.684 38.8789 461.648 39.5737 461.582C39.232 459.803 39.5996 457.771 38.6111 457.776H35.9386C34.9569 457.771 35.3124 459.775 34.9832 461.543C35.7988 461.635 36.6264 461.684 37.4649 461.684Z" fill="#F18545"/>
<path d="M29.8896 468.662C27.9726 469.62 25.6766 469.405 23.798 468.469C22.4023 467.774 21.2215 466.711 20.2707 465.485C20.1249 465.297 19.9977 465.118 19.8902 464.947C19.6902 464.638 19.5815 464.418 19.5815 464.418C22.3443 466.142 24.9403 468.295 28.3634 468.395C28.7934 468.407 29.2247 468.412 29.654 468.381C29.8703 468.365 30.4277 468.346 30.4277 468.346C30.4277 468.346 30.215 468.5 29.8896 468.662Z" fill="#F18545"/>
<path fill-rule="evenodd" clip-rule="evenodd" d="M62.0206 438.794C61.2785 442.239 59.7866 445.417 57.7182 448.16C56.3769 449.938 45.3205 457.362 40.7086 457.941C39.6445 458.075 38.5594 458.144 37.4579 458.144C34.7562 458.144 32.1542 457.73 29.7159 456.962C25.6192 455.674 13.7631 443.067 12.8401 438.528C12.5279 436.993 12.3642 435.406 12.3642 433.783C12.3642 420.329 23.5989 409.422 37.458 409.422C43.0203 409.422 48.1599 411.178 52.3201 414.152C58.5255 418.587 62.3689 437.177 62.0206 438.794Z" fill="#29AEFD"/>
<path fill-rule="evenodd" clip-rule="evenodd" d="M43.1529 410.053C41.3234 409.64 39.4168 409.422 37.4579 409.422C27.7377 409.422 19.3096 414.787 15.1412 422.633C17.4926 425.342 19.837 428.069 23.2269 428.069C28.8758 427.83 28.8758 423.046 30.6142 418.501C32.5695 413.716 35.1769 414.195 38.8699 412.76C40.7433 412.104 42.0483 411.152 43.1529 410.053Z" fill="#074785"/>
<path fill-rule="evenodd" clip-rule="evenodd" d="M52.3166 414.151C49.3496 415.993 47.9575 418.655 45.1926 421.592C43.2373 423.765 32.374 427.241 35.4159 431.151C38.4572 435.28 45.8448 428.979 49.7557 430.5C53.577 432.117 57.5982 437.213 62.0195 438.794C62.3679 437.177 62.5521 435.501 62.5521 433.783C62.5521 425.728 58.5238 418.587 52.3166 414.151Z" fill="#FFA4AC"/>
<path fill-rule="evenodd" clip-rule="evenodd" d="M51.7108 439.891C48.6689 438.276 45.6273 439.891 44.1062 443.657C42.1248 448.187 42.816 453.907 40.7062 457.941C47.6879 457.065 53.7694 453.403 57.7304 448.141C56.6521 444.588 55.0603 441.514 51.7108 439.891Z" fill="#7BEFE5"/>
<path fill-rule="evenodd" clip-rule="evenodd" d="M28.6806 442.45C27.3773 442.884 25.8563 444.187 24.3354 444.405C20.2071 445.056 18.2523 441.58 15.2103 439.625C14.3819 439.112 13.5901 438.722 12.8256 438.449C14.5752 447.204 21.1514 454.283 29.7584 456.974C31.9522 454.025 34.4143 451.337 34.7643 447.663C35.4158 442.666 33.4605 440.494 28.6806 442.45Z" fill="#F9D555"/>
<path d="M39.7612 454.093C39.7612 454.093 39.7837 453.802 39.842 453.298C39.872 453.046 39.9055 452.739 39.9552 452.39C40.0019 452.04 40.05 451.646 40.1161 451.218C40.1477 451.005 40.1804 450.782 40.2143 450.552C40.5134 448.518 40.5239 446.449 41.1808 444.469C41.8478 442.46 43.0882 440.86 44.795 439.633C44.984 439.514 45.1657 439.401 45.3393 439.299C45.5137 439.196 45.6912 439.119 45.8501 439.037C45.9307 438.997 46.0083 438.959 46.0833 438.921C46.1614 438.89 46.2365 438.861 46.3085 438.832C46.4528 438.776 46.5851 438.724 46.7047 438.678C46.9463 438.592 47.143 438.546 47.2729 438.505C47.404 438.469 47.4742 438.45 47.4742 438.45C47.4742 438.45 47.2239 438.595 46.7855 438.848C46.6801 438.917 46.5633 438.993 46.4365 439.075C46.3732 439.115 46.3071 439.157 46.2388 439.201C46.1731 439.249 46.105 439.298 46.0349 439.349C45.8965 439.454 45.7422 439.554 45.5946 439.679C45.4459 439.802 45.2896 439.93 45.1269 440.065C43.6701 441.269 42.5943 443.049 42.0289 444.835C41.5707 446.283 41.4281 447.802 41.1549 449.289C40.9019 450.666 40.4724 452.013 40.0253 453.338C39.864 453.82 39.7612 454.093 39.7612 454.093Z" fill="#7BEFE5"/>
<path d="M40.7329 422.93C40.7329 422.93 40.8475 422.803 41.0589 422.596C41.1672 422.495 41.2858 422.362 41.4325 422.223C41.5778 422.085 41.7346 421.917 41.9118 421.745C43.4948 420.207 45.1265 418.544 46.2467 416.629C46.2801 416.574 46.3132 416.519 46.3455 416.465C46.3731 416.41 46.4004 416.355 46.4267 416.302C46.5317 416.087 46.6458 415.891 46.709 415.706C46.7765 415.522 46.8632 415.363 46.8934 415.224C46.975 414.948 47.0339 414.782 47.0339 414.782C47.0339 414.782 47.0584 414.947 47.0803 415.25C47.1005 415.402 47.0792 415.582 47.0619 415.794C47.054 416.008 47.0006 416.239 46.9422 416.494C46.9279 416.559 46.9132 416.624 46.8947 416.69C46.8732 416.754 46.8512 416.819 46.8289 416.885C46.7816 417.018 46.7331 417.156 46.6829 417.297C45.944 419.382 44.1 421.058 42.2487 422.176C42.0312 422.308 41.8299 422.423 41.6436 422.517C41.4608 422.614 41.2992 422.695 41.1639 422.752C40.8936 422.871 40.7329 422.93 40.7329 422.93Z" fill="#7BEFE5"/>
<path d="M18.813 439.789C18.813 439.789 19.0281 439.939 19.3955 440.209C19.49 440.268 19.595 440.334 19.7095 440.406C21.0838 441.27 22.5698 441.463 24.1469 441.2C24.3788 441.146 24.6129 441.096 24.8492 441.028C25.3208 440.896 25.7997 440.741 26.2806 440.567C26.7635 440.4 27.2461 440.218 27.7342 440.054C28.2216 439.887 28.709 439.732 29.1967 439.614C29.682 439.493 30.1638 439.404 30.6298 439.368C31.4105 439.288 32.287 439.354 33.02 439.654C33.1723 439.716 33.3154 439.769 33.443 439.828C33.5658 439.895 33.6793 439.958 33.7814 440.014C33.832 440.042 33.8805 440.067 33.9241 440.094C33.9663 440.124 34.0055 440.152 34.0425 440.178C34.1155 440.23 34.177 440.274 34.227 440.31C34.3258 440.383 34.3783 440.422 34.3783 440.422C34.3783 440.422 34.3168 440.399 34.2009 440.358C34.1438 440.337 34.0736 440.31 33.9909 440.28C33.9095 440.248 33.8151 440.214 33.7057 440.187C32.2379 439.819 30.852 439.962 29.4272 440.424C28.9789 440.566 28.5193 440.744 28.0463 440.92C27.5753 441.1 27.0895 441.286 26.5952 441.462C26.1006 441.635 25.5922 441.797 25.0763 441.918C23.285 442.339 21.3331 442.163 19.8772 440.922C19.8142 440.871 19.7518 440.824 19.695 440.773C19.6404 440.719 19.588 440.668 19.5375 440.618C19.4388 440.519 19.3482 440.428 19.2665 440.345C19.1152 440.175 19.0078 440.03 18.9293 439.936C18.8533 439.84 18.813 439.789 18.813 439.789Z" fill="#7BEFE5"/>
<path d="M21.6858 429.239C21.6858 429.239 21.7581 429.295 21.8936 429.399C22.0302 429.503 22.2393 429.63 22.5204 429.758C22.804 429.879 23.168 429.967 23.5869 429.985C24.0064 430.004 24.4797 429.928 24.9753 429.78C25.4713 429.63 25.9858 429.388 26.504 429.088C27.0228 428.788 27.5338 428.407 28.0325 427.985C28.5265 427.557 29.0076 427.076 29.4169 426.545C29.6238 426.277 29.8 426.008 29.951 425.711C30.1163 425.391 30.2922 425.066 30.4235 424.752C30.7193 424.129 30.971 423.448 31.2254 422.791C31.5605 421.926 31.8978 421.061 32.3059 420.227C32.7136 419.394 33.1938 418.588 33.8096 417.891C34.4685 417.145 35.2688 416.582 36.1832 416.192C36.4501 416.078 36.7253 415.991 37.0018 415.904C37.1648 415.853 37.2516 415.825 37.2516 415.825C37.1943 415.843 37.1357 415.889 37.0837 415.918C36.9191 416.009 36.7545 416.101 36.5899 416.192C35.659 416.708 34.8436 417.426 34.2191 418.288C33.642 419.084 33.2269 419.982 32.8752 420.897C32.5948 421.626 32.3518 422.369 32.0911 423.105C31.8496 423.786 31.6014 424.47 31.2799 425.161C31.1259 425.515 30.9524 425.827 30.7842 426.147C30.6065 426.495 30.3737 426.822 30.1382 427.115C29.6609 427.705 29.1198 428.201 28.5622 428.636C28.0032 429.068 27.4208 429.429 26.8365 429.711C26.5465 429.855 26.2526 429.976 25.9637 430.077C25.6718 430.172 25.3866 430.255 25.1048 430.306C24.5446 430.418 24.0085 430.429 23.5485 430.345C23.0871 430.267 22.71 430.099 22.4332 429.924C22.158 429.745 21.9707 429.563 21.8565 429.438C21.7453 429.309 21.6858 429.239 21.6858 429.239Z" fill="#7BEFE5"/>
<path d="M42.8513 456.041C43.6092 455.892 44.3714 455.406 45.0554 455.063C46.3838 454.395 47.6792 453.668 48.9182 452.845C50.8181 451.585 52.5557 450.128 54.1845 448.536C54.4435 448.283 54.701 448.029 54.9558 447.771C55.1769 447.549 55.3731 447.357 55.5278 447.193C55.8433 446.869 56.0329 446.689 56.0329 446.689C56.0329 446.689 55.9076 446.917 55.6715 447.305C54.5418 449.166 53.0905 450.869 51.3831 452.222C49.7568 453.511 47.9105 454.505 45.9751 455.244C45.7799 455.319 45.5836 455.391 45.3864 455.461C44.5698 455.749 43.7012 455.873 42.8513 456.041Z" fill="#074785"/>
<path d="M60.5659 433.342C60.5659 433.342 60.5056 433.089 60.4177 432.644C60.3964 432.533 60.3724 432.41 60.3464 432.276C60.3169 432.144 60.2851 432 60.2512 431.848C60.1829 431.542 60.114 431.2 60.0193 430.828C59.9743 430.642 59.9272 430.448 59.8786 430.248C58.9564 426.446 57.2105 423.007 55.1174 419.728C54.949 419.464 54.8047 419.231 54.6781 419.044C54.4309 418.666 54.2968 418.442 54.2968 418.442C54.2968 418.442 54.491 418.613 54.8192 418.929C54.9005 419.008 54.991 419.095 55.0897 419.191C58.2292 422.227 60.1787 426.592 60.5585 430.918C60.5847 431.215 60.5893 431.512 60.5973 431.81C60.6015 431.969 60.6101 432.117 60.6088 432.254C60.6052 432.391 60.6015 432.516 60.5984 432.63C60.5844 433.083 60.5659 433.342 60.5659 433.342Z" fill="#074785"/>
<path d="M30.8312 412.053C30.8312 412.053 30.5975 412.167 30.1828 412.351C30.079 412.396 29.9642 412.446 29.8394 412.501C26.7573 413.854 23.9242 415.717 21.3705 417.903C20.2565 418.856 19.1824 419.872 18.1777 420.94C17.8632 421.265 17.6739 421.445 17.6739 421.445C17.6739 421.445 17.7986 421.218 18.034 420.828C18.2625 420.45 18.5143 420.086 18.762 419.721C20.4879 417.176 23.0282 414.965 25.8192 413.655C27.1939 413.01 28.6353 412.472 30.1286 412.178C30.5738 412.092 30.8312 412.053 30.8312 412.053Z" fill="#7BEFE5"/>
<path d="M43.9049 429.177C43.902 429.178 43.8992 429.179 43.8964 429.179C45.1574 428.386 46.668 427.997 48.1553 428.081C50.222 428.198 51.9745 429.285 53.5364 430.56C53.8754 430.842 54.1948 431.123 54.489 431.396C54.7849 431.669 55.0542 431.935 55.3018 432.182C55.7985 432.673 56.1958 433.098 56.4753 433.396C56.7542 433.694 56.9094 433.87 56.9094 433.87C56.9094 433.87 56.8591 433.841 56.764 433.785C56.6709 433.728 56.5297 433.648 56.3592 433.536C56.0134 433.316 55.5275 432.991 54.9626 432.583C53.2485 431.346 51.5315 429.985 49.5331 429.236C48.1938 428.734 46.8512 428.626 45.4426 428.818C44.9272 428.925 44.4166 429.055 43.9049 429.177Z" fill="#FC6084"/>
<path d="M28.7656 454.806C28.7656 454.806 28.8911 454.678 29.1206 454.469C29.1758 454.415 29.2478 454.364 29.3054 454.293C30.1793 453.208 30.8853 452.129 31.394 450.821C31.9182 449.472 32.2936 448.048 32.5962 446.634C32.6508 446.38 32.7101 446.147 32.7509 445.938C32.7911 445.729 32.8406 445.547 32.8683 445.396C32.9303 445.094 32.9764 444.919 32.9764 444.919C32.9764 444.919 33.0102 445.094 33.0498 445.404C33.0722 445.559 33.0878 445.747 33.1002 445.964C33.193 447.597 32.9508 449.319 32.363 450.85C31.8003 452.316 30.8312 453.722 29.4517 454.512C29.3711 454.562 29.2887 454.587 29.2188 454.621C28.934 454.744 28.7656 454.806 28.7656 454.806Z" fill="#F18545"/>
<path fill-rule="evenodd" clip-rule="evenodd" d="M55.6311 473.185C55.8225 474.33 54.7739 475.49 53.2835 475.728C42.6759 477.424 31.8928 477.424 21.2854 475.728C19.7951 475.49 18.7462 474.33 18.9373 473.185C18.9702 472.981 19.0031 472.778 19.0361 472.575C19.2275 471.428 20.529 470.719 21.9478 470.945C32.1159 472.571 42.4527 472.571 52.6206 470.945C54.0394 470.719 55.341 471.428 55.5324 472.575C55.5654 472.778 55.5985 472.981 55.6311 473.185Z" fill="#FC6084"/>
<path d="M21.4493 473.345C21.4493 473.345 21.9612 473.342 22.8536 473.359C23.7458 473.374 25.0181 473.407 26.5391 473.461C33.4864 473.707 40.41 474.106 47.3624 473.797C49.0125 473.723 50.6657 473.65 52.311 473.505C53.1827 473.428 53.6935 473.397 53.699 473.397C53.2848 473.422 52.8237 473.617 52.4205 473.711C51.654 473.889 50.8776 474.026 50.1008 474.154C48.4231 474.428 46.7331 474.625 45.0381 474.754C41.6385 475.013 38.2223 475.002 34.8189 474.823C31.3327 474.638 27.8594 474.281 24.4014 473.811C23.7898 473.728 23.2583 473.643 22.8212 473.575C21.947 473.437 21.4493 473.345 21.4493 473.345Z" fill="#FFA4AC"/>
<path d="M50.4889 470.582C50.4786 470.564 50.4127 470.547 50.3954 470.539C50.312 470.5 50.2283 470.46 50.1451 470.423C50.0402 470.376 49.9402 470.31 49.8388 470.255C49.7364 470.199 49.6336 470.144 49.5305 470.09C49.1203 469.874 48.7031 469.674 48.2857 469.473C47.8729 469.274 47.4624 469.07 47.0536 468.863C46.6445 468.656 46.2371 468.446 45.8303 468.234C45.4233 468.023 45.017 467.81 44.6102 467.599C44.2035 467.387 43.7963 467.177 43.3876 466.969C42.9791 466.761 42.5692 466.557 42.1567 466.357C41.7446 466.157 41.3299 465.963 40.9119 465.776C40.8576 465.751 40.8025 465.728 40.7488 465.703C40.4608 465.575 40.2944 465.49 40.2944 465.49C40.2944 465.49 40.4746 465.496 40.7934 465.527C41.1136 465.557 41.4327 465.601 41.7496 465.656C43.3893 465.94 44.9799 466.558 46.434 467.365C47.1644 467.771 47.8641 468.232 48.5248 468.743C49.1623 469.236 49.8607 469.784 50.3735 470.408C50.4204 470.466 50.4888 470.581 50.4889 470.582Z" fill="white"/>
<path fill-rule="evenodd" clip-rule="evenodd" d="M59.1456 441.397C59.1456 441.978 58.6744 442.45 58.0926 442.45C57.5113 442.45 57.0399 441.978 57.0399 441.397C57.0399 440.815 57.5113 440.344 58.0926 440.344C58.6744 440.344 59.1456 440.815 59.1456 441.397Z" fill="white"/>
<path fill-rule="evenodd" clip-rule="evenodd" d="M33.2017 434.608C33.2017 434.939 32.9334 435.208 32.602 435.208C32.2707 435.208 32.0021 434.939 32.0021 434.608C32.0021 434.276 32.2707 434.008 32.602 434.008C32.9333 434.008 33.2017 434.276 33.2017 434.608Z" fill="white"/>
<path fill-rule="evenodd" clip-rule="evenodd" d="M40.3609 419.041C40.3609 419.373 40.0925 419.641 39.7611 419.641C39.4298 419.641 39.1614 419.373 39.1614 419.041C39.1614 418.71 39.4298 418.442 39.7611 418.442C40.0925 418.442 40.3609 418.71 40.3609 419.041Z" fill="white"/>
<path d="M23.8557 436.717C24.4371 436.717 24.9085 436.245 24.9085 435.664C24.9085 435.082 24.4371 434.611 23.8557 434.611C23.2742 434.611 22.8028 435.082 22.8028 435.664C22.8028 436.245 23.2742 436.717 23.8557 436.717Z" fill="white"/>
<path fill-rule="evenodd" clip-rule="evenodd" d="M51.0058 434.218C51.0058 434.68 50.6325 435.053 50.1711 435.053C49.7103 435.053 49.3365 434.68 49.3365 434.218C49.3365 433.757 49.7103 433.383 50.1711 433.383C50.6323 433.383 51.0058 433.757 51.0058 434.218Z" fill="#7BEEE4"/>
<path fill-rule="evenodd" clip-rule="evenodd" d="M36.0167 423.112C36.0167 423.574 35.6431 423.948 35.1819 423.948C34.721 423.948 34.3471 423.574 34.3471 423.112C34.3471 422.651 34.721 422.278 35.1819 422.278C35.6431 422.278 36.0167 422.651 36.0167 423.112Z" fill="#7BEEE4"/>
<path d="M35.1819 454.951C35.7634 454.951 36.2347 454.48 36.2347 453.898C36.2347 453.316 35.7634 452.845 35.1819 452.845C34.6004 452.845 34.129 453.316 34.129 453.898C34.129 454.48 34.6004 454.951 35.1819 454.951Z" fill="#074785"/>
<path fill-rule="evenodd" clip-rule="evenodd" d="M38.1425 446.271C38.1425 446.525 37.9369 446.73 37.6833 446.73C37.4298 446.73 37.2242 446.525 37.2242 446.271C37.2242 446.017 37.4296 445.812 37.6833 445.812C37.9369 445.812 38.1425 446.017 38.1425 446.271Z" fill="#074785"/>
<path fill-rule="evenodd" clip-rule="evenodd" d="M54.7559 438.25C54.7559 438.504 54.5505 438.709 54.2969 438.709C54.0434 438.709 53.8378 438.504 53.8378 438.25C53.8378 437.996 54.0434 437.791 54.2969 437.791C54.5505 437.791 54.7559 437.996 54.7559 438.25Z" fill="#074785"/>
<path fill-rule="evenodd" clip-rule="evenodd" d="M42.8919 414.791C42.8919 415.373 42.4207 415.844 41.8389 415.844C41.2576 415.844 40.7862 415.373 40.7862 414.791C40.7862 414.209 41.2576 413.738 41.8389 413.738C42.4208 413.738 42.8919 414.209 42.8919 414.791Z" fill="#074785"/>
<path fill-rule="evenodd" clip-rule="evenodd" d="M15.6777 429.436C16.5476 432.161 17.834 433.051 19.5957 432.766C17.9134 433.45 17.3213 434.987 18.0081 437.752C17.1235 435.111 15.9265 433.959 14.095 434.36C15.7293 433.626 16.3543 432.169 15.6777 429.436Z" fill="white"/>
<path fill-rule="evenodd" clip-rule="evenodd" d="M39.7886 435.698C39.8394 437.721 40.5544 438.582 41.839 438.739C40.5281 438.869 39.8028 439.795 39.718 441.809C39.6398 439.84 39.0406 438.819 37.6833 438.727C38.9709 438.554 39.7029 437.689 39.7886 435.698Z" fill="#074785"/>
<path fill-rule="evenodd" clip-rule="evenodd" d="M12.7766 446.386C10.7612 444.428 5.87519 441.063 3.47233 444.638C2.82222 447.241 3.73192 451.677 6.26163 454.807C7.7313 456.626 10.128 458.9 12.293 459.927C14.301 460.799 17.3065 459.912 17.5807 457.498C18.0764 453.134 15.7907 449.313 12.7766 446.386Z" fill="#7BEFE5"/>
<path fill-rule="evenodd" clip-rule="evenodd" d="M13.2653 466.501C11.5093 464.778 10.0183 463.012 9.16652 460.784C8.77868 459.769 8.58321 458.724 8.6583 457.636C8.67237 457.43 8.74043 457.227 8.80273 456.931C9.09818 457.147 9.32599 457.31 9.55099 457.478C10.8051 458.408 12.0569 459.34 13.3116 460.268C14.0743 460.833 14.0427 460.813 13.6158 461.635C13.0123 462.797 12.7499 464.03 13.0693 465.335C13.1369 465.611 13.2572 465.874 13.3348 466.148C13.355 466.22 13.3055 466.311 13.2653 466.501Z" fill="#074785"/>
<path fill-rule="evenodd" clip-rule="evenodd" d="M22.8613 460.116C22.2719 459.617 21.7842 459.2 21.2926 458.789C20.3971 458.038 19.3724 457.66 18.1976 457.768C17.8615 457.799 17.7591 457.664 17.6731 457.354C17.2534 455.852 16.8036 454.359 16.3575 452.865C16.2682 452.568 16.4031 452.466 16.6514 452.538C17.121 452.675 17.6061 452.802 18.0353 453.027C19.2247 453.651 20.3326 454.414 21.0896 455.543C21.5758 456.268 21.9446 457.078 22.3065 457.878C22.5307 458.373 22.6527 458.916 22.7997 459.444C22.8506 459.626 22.837 459.826 22.8613 460.116Z" fill="#074785"/>
<path fill-rule="evenodd" clip-rule="evenodd" d="M5.16402 442.17C5.67098 442.393 6.62863 442.815 7.58882 443.232C7.90551 443.37 7.8809 443.585 7.75082 443.836C7.11168 445.074 6.09313 445.859 4.78743 446.285C4.45513 446.394 4.10343 446.452 3.75608 446.503C3.5159 446.538 3.34546 446.46 3.34532 446.152C3.34532 444.96 3.28991 443.766 3.33365 442.576C3.35544 441.97 3.58522 441.535 5.16402 442.17Z" fill="#074785"/>
<path fill-rule="evenodd" clip-rule="evenodd" d="M18.4736 463.497C18.3915 463.416 18.2978 463.344 18.2278 463.255C17.2957 462.058 16.3551 460.867 15.4395 459.659C14.661 458.631 14.1036 457.49 13.7618 456.252C13.7984 456.215 13.8343 456.177 13.8704 456.139C13.9989 456.232 14.1588 456.3 14.2514 456.42C14.8753 457.231 15.486 458.053 16.0985 458.873C16.9402 460 17.6939 461.18 18.2627 462.471C18.3982 462.78 18.5144 463.097 18.6397 463.41C18.5844 463.439 18.529 463.468 18.4736 463.497Z" fill="#074785"/>
<path fill-rule="evenodd" clip-rule="evenodd" d="M15.2473 450.921C16.8687 451.742 8.51444 457.485 8.32769 455.91C8.29999 455.676 8.65788 455.669 8.80976 455.617C10.498 455.032 12.0332 454.179 13.3376 452.956C13.8806 452.446 14.3388 451.847 14.8419 451.294C14.9649 451.158 15.0837 450.838 15.2473 450.921Z" fill="#074785"/>
<path fill-rule="evenodd" clip-rule="evenodd" d="M9.40037 447.913C10.5746 448.301 11.2118 449.566 10.8249 450.74C10.4372 451.914 9.17157 452.552 7.99792 452.165C6.8237 451.777 6.18596 450.512 6.57324 449.338C6.96081 448.164 8.22671 447.526 9.40037 447.913Z" fill="white"/>
</g>
<defs>
<clipPath id="clip0_1210_40835">
<rect width="72" height="72" fill="white" transform="translate(0 405)"/>
</clipPath>
</defs>
</svg>
